<?xml version="1.0" encoding="UTF-8" ?>
<!DOCTYPE svg PUBLIC "-//W3C//DTD SVG 1.1//EN" "http://www.w3.org/Graphics/SVG/1.1/DTD/svg11.dtd">
<svg width="475pt" height="475pt" viewBox="0 0 475 475" version="1.1" xmlns="http://www.w3.org/2000/svg">
<g id="#4a9dd2ff">
<path fill="#4a9dd2" opacity="1.00" d=" M 79.24 55.25 C 79.99 52.44 82.10 49.55 85.19 49.19 C 89.77 48.66 94.40 49.06 99.00 49.00 C 192.67 49.00 286.33 49.01 380.00 48.99 C 384.27 49.04 388.56 48.68 392.81 49.19 C 395.89 49.55 398.01 52.44 398.76 55.24 C 399.35 59.47 398.95 63.75 399.01 68.00 C 398.99 180.33 399.01 292.67 399.00 405.00 C 398.99 409.76 398.91 414.52 399.26 419.28 C 396.33 422.44 392.70 425.47 388.07 425.06 C 301.05 424.93 214.02 425.03 127.00 425.00 C 116.67 425.04 106.33 424.89 96.00 425.10 C 92.75 425.11 89.46 425.25 86.25 424.64 C 83.11 423.98 81.01 421.32 78.75 419.27 C 79.11 414.19 78.99 409.09 79.00 404.00 C 79.00 292.33 79.00 180.67 79.00 69.00 C 79.07 64.42 78.62 59.80 79.24 55.25 M 230.69 59.72 C 227.98 60.92 226.32 63.47 224.73 65.83 C 223.57 67.65 223.44 69.89 222.92 71.94 C 211.94 71.98 200.96 72.05 189.98 71.90 C 188.01 71.91 186.04 71.89 184.09 72.15 C 182.08 72.26 180.94 74.12 179.58 75.34 C 179.74 77.56 179.89 79.79 179.95 82.02 C 159.29 81.92 138.63 82.10 117.98 81.93 C 115.18 81.97 112.32 81.92 109.60 82.69 C 106.74 83.52 104.32 85.93 103.70 88.88 C 103.06 93.89 103.15 98.96 103.23 104.00 C 103.25 196.00 103.21 288.01 103.25 380.01 C 103.61 386.30 102.43 392.69 103.88 398.89 C 104.06 400.38 104.33 401.85 104.59 403.33 C 106.22 405.07 107.79 407.29 110.35 407.60 C 115.51 408.48 120.78 407.94 126.00 408.02 C 201.33 408.02 276.66 408.02 352.00 408.02 C 356.88 407.97 361.81 408.45 366.65 407.60 C 369.19 407.29 370.76 405.09 372.38 403.36 C 372.55 401.86 372.73 400.37 372.94 398.88 L 373.87 398.80 C 373.63 386.86 373.83 374.93 373.79 363.00 C 373.79 277.00 373.80 191.00 373.79 105.00 C 373.85 99.62 374.02 94.22 373.31 88.87 C 372.66 85.94 370.26 83.52 367.40 82.69 C 364.68 81.92 361.82 81.97 359.02 81.93 C 338.70 82.11 318.37 81.92 298.05 82.02 C 298.10 79.79 298.25 77.56 298.42 75.33 C 297.05 74.12 295.91 72.26 293.91 72.16 C 290.29 71.72 286.63 71.96 283.00 71.96 C 272.71 72.03 262.42 71.98 252.13 71.94 C 251.61 69.88 251.56 67.59 250.35 65.78 C 248.71 63.44 247.02 60.91 244.31 59.69 C 240.11 57.45 234.89 57.48 230.69 59.72 Z" />
</g>
<g id="#dde4e9ff">
<path fill="#dde4e9" opacity="1.00" d=" M 230.69 59.72 C 234.89 57.48 240.11 57.45 244.31 59.69 C 247.02 60.91 248.71 63.44 250.35 65.78 C 246.66 63.14 242.63 60.37 237.95 60.15 C 232.94 60.01 228.60 62.99 224.73 65.83 C 226.32 63.47 227.98 60.92 230.69 59.72 Z" />
</g>
<g id="#bbbbbbff">
<path fill="#bbbbbb" opacity="1.00" d=" M 224.73 65.83 C 228.60 62.99 232.94 60.01 237.95 60.15 C 242.63 60.37 246.66 63.14 250.35 65.78 C 251.56 67.59 251.61 69.88 252.13 71.94 C 252.23 72.39 252.43 73.27 252.52 73.71 C 258.66 74.36 264.84 74.00 271.00 74.04 C 280.15 74.21 289.43 73.11 298.42 75.33 C 298.25 77.56 298.10 79.79 298.05 82.02 C 297.95 86.13 297.97 90.25 298.04 94.36 C 291.71 93.67 285.34 93.96 279.00 93.99 C 252.67 93.98 226.33 93.97 200.00 93.99 C 193.32 93.99 186.62 93.63 179.96 94.36 C 180.02 90.25 180.04 86.13 179.95 82.02 C 179.89 79.79 179.74 77.56 179.58 75.34 C 182.99 74.65 186.43 74.02 189.93 73.94 C 200.78 73.76 211.67 74.57 222.50 73.72 C 222.61 73.28 222.82 72.39 222.92 71.94 C 223.44 69.89 223.57 67.65 224.73 65.83 M 233.94 66.82 C 232.35 68.02 231.50 69.91 230.39 71.51 C 230.44 73.13 230.48 74.75 230.51 76.37 C 231.46 77.81 232.35 79.33 233.59 80.56 C 235.85 82.15 239.13 82.17 241.40 80.57 C 242.66 79.34 243.58 77.84 244.57 76.39 C 244.51 74.47 244.45 72.55 244.45 70.63 C 243.20 69.16 242.19 67.36 240.48 66.38 C 238.38 65.59 235.90 65.73 233.94 66.82 Z" />
</g>
<g id="#235272ff">
<path fill="#235272" opacity="1.00" d=" M 233.94 66.82 C 235.90 65.73 238.38 65.59 240.48 66.38 C 242.19 67.36 243.20 69.16 244.45 70.63 C 242.04 69.66 239.68 68.42 237.08 68.09 C 234.60 68.65 232.54 70.25 230.39 71.51 C 231.50 69.91 232.35 68.02 233.94 66.82 Z" />
</g>
<g id="#2385c4ff">
<path fill="#2385c4" opacity="1.00" d=" M 230.39 71.51 C 232.54 70.25 234.60 68.65 237.08 68.09 C 239.68 68.42 242.04 69.66 244.45 70.63 C 244.45 72.55 244.51 74.47 244.57 76.39 C 242.40 77.46 240.29 78.73 237.93 79.31 C 235.23 79.06 232.91 77.47 230.51 76.37 C 230.48 74.75 230.44 73.13 230.39 71.51 Z" />
</g>
<g id="#edeeeeff">
<path fill="#edeeee" opacity="1.00" d=" M 179.58 75.34 C 180.94 74.12 182.08 72.26 184.09 72.15 C 186.04 71.89 188.01 71.91 189.98 71.90 C 200.96 72.05 211.94 71.98 222.92 71.94 C 222.82 72.39 222.61 73.28 222.50 73.72 C 211.67 74.57 200.78 73.76 189.93 73.94 C 186.43 74.02 182.99 74.65 179.58 75.34 Z" />
<path fill="#edeeee" opacity="1.00" d=" M 252.13 71.94 C 262.42 71.98 272.71 72.03 283.00 71.96 C 286.63 71.96 290.29 71.72 293.91 72.16 C 295.91 72.26 297.05 74.12 298.42 75.33 C 289.43 73.11 280.15 74.21 271.00 74.04 C 264.84 74.00 258.66 74.36 252.52 73.71 C 252.43 73.27 252.23 72.39 252.13 71.94 Z" />
</g>
<g id="#cfdbe3ff">
<path fill="#cfdbe3" opacity="1.00" d=" M 230.51 76.37 C 232.91 77.47 235.23 79.06 237.93 79.31 C 240.29 78.73 242.40 77.46 244.57 76.39 C 243.58 77.84 242.66 79.34 241.40 80.57 C 239.13 82.17 235.85 82.15 233.59 80.56 C 232.35 79.33 231.46 77.81 230.51 76.37 Z" />
</g>
<g id="#ffffffff">
<path fill="#ffffff" opacity="1.00" d=" M 109.60 82.69 C 112.32 81.92 115.18 81.97 117.98 81.93 C 138.63 82.10 159.29 81.92 179.95 82.02 C 180.04 86.13 180.02 90.25 179.96 94.36 C 183.19 95.37 186.53 96.15 189.94 96.13 C 218.29 95.86 246.65 96.08 275.00 96.00 C 282.69 95.85 290.64 97.09 298.04 94.36 C 297.97 90.25 297.95 86.13 298.05 82.02 C 318.37 81.92 338.70 82.11 359.02 81.93 C 361.82 81.97 364.68 81.92 367.40 82.69 C 370.26 83.52 372.66 85.94 373.31 88.87 C 373.38 181.91 373.31 274.96 373.34 368.00 C 373.30 373.01 373.77 378.03 373.20 383.02 C 372.86 386.35 370.79 389.08 369.03 391.79 C 364.69 391.85 360.34 391.88 356.00 392.01 C 277.67 391.99 199.33 391.99 121.00 392.01 C 116.66 391.89 112.31 391.85 107.97 391.79 C 106.20 389.08 104.12 386.35 103.80 383.03 C 103.26 378.37 103.66 373.67 103.65 369.00 C 103.71 275.63 103.60 182.25 103.70 88.88 C 104.32 85.93 106.74 83.52 109.60 82.69 M 129.88 132.88 C 127.58 134.95 127.40 138.21 126.87 141.05 C 126.81 148.70 127.14 156.35 127.01 164.00 C 127.10 169.60 126.56 175.23 127.30 180.81 C 127.71 184.27 130.22 187.41 133.61 188.34 C 136.66 189.18 139.86 189.06 142.99 189.08 C 152.33 188.95 161.68 188.97 171.02 189.09 C 174.06 189.04 177.21 189.14 180.12 188.10 C 183.17 186.96 185.31 184.00 185.71 180.81 C 186.44 175.24 185.89 169.60 185.99 164.00 C 185.86 156.35 186.19 148.70 186.11 141.05 C 185.59 138.21 185.43 134.93 183.12 132.87 C 180.28 129.88 175.85 129.96 172.04 129.90 C 161.68 130.00 151.32 130.01 140.96 129.90 C 137.15 129.96 132.72 129.87 129.88 132.88 M 207.01 147.05 C 207.01 149.01 207.01 150.98 207.01 152.95 C 251.34 153.03 295.67 153.04 340.00 152.95 C 339.99 150.98 339.98 149.01 339.98 147.05 C 295.66 146.97 251.34 146.97 207.01 147.05 M 207.01 163.05 C 207.01 165.01 207.01 166.98 207.01 168.95 C 231.00 169.03 255.00 169.04 278.99 168.95 C 278.99 166.98 278.99 165.02 278.99 163.05 C 255.00 162.96 231.00 162.97 207.01 163.05 M 131.56 218.51 C 129.46 219.75 128.57 222.16 127.41 224.18 L 126.89 224.37 C 127.12 237.27 126.96 250.17 126.94 263.06 C 126.98 264.93 127.04 266.82 127.43 268.66 C 128.13 272.04 130.97 274.87 134.34 275.59 C 136.85 276.11 139.43 276.06 141.98 276.08 C 151.66 275.96 161.34 275.97 171.01 276.07 C 173.56 276.06 176.14 276.11 178.66 275.59 C 182.32 274.81 185.29 271.55 185.74 267.83 C 186.36 262.91 185.94 257.94 186.00 253.00 C 186.04 243.46 185.89 233.91 186.12 224.37 L 185.59 224.17 C 184.43 222.16 183.53 219.75 181.44 218.51 C 178.60 216.86 175.20 217.01 172.04 216.93 C 161.68 217.03 151.32 217.02 140.96 216.93 C 137.80 217.01 134.39 216.86 131.56 218.51 M 207.01 238.05 C 207.01 240.01 207.01 241.98 207.01 243.95 C 251.33 244.04 295.66 244.03 339.99 243.95 C 339.98 241.98 339.98 240.01 339.99 238.05 C 295.66 237.97 251.33 237.97 207.01 238.05 M 207.01 253.05 C 207.01 255.02 207.01 256.98 207.01 258.95 C 231.00 259.04 255.00 259.03 278.99 258.95 C 278.99 256.98 278.99 255.01 279.00 253.05 C 255.00 252.96 231.00 252.96 207.01 253.05 M 129.88 307.88 C 127.58 309.94 127.40 313.21 126.86 316.05 C 126.93 327.03 127.13 338.03 126.92 349.02 C 127.01 353.13 126.67 357.98 129.87 361.13 C 132.73 364.09 137.15 364.01 140.96 364.08 C 150.64 363.98 160.32 363.93 170.00 364.08 C 173.14 364.06 176.34 364.18 179.39 363.35 C 182.78 362.41 185.30 359.27 185.71 355.81 C 186.44 350.23 185.90 344.60 186.00 339.00 C 185.87 331.35 186.19 323.69 186.12 316.05 C 185.60 313.20 185.42 309.94 183.12 307.87 C 180.27 304.88 175.85 304.96 172.04 304.90 C 161.68 305.00 151.32 305.01 140.96 304.90 C 137.15 304.95 132.72 304.87 129.88 307.88 M 207.00 324.05 C 207.01 326.01 207.01 327.98 207.02 329.95 C 251.34 330.04 295.67 330.03 339.99 329.96 C 339.99 327.98 339.99 326.01 339.99 324.05 C 295.66 323.97 251.33 323.97 207.00 324.05 M 207.01 340.05 C 207.01 342.01 207.01 343.98 207.02 345.95 C 231.01 346.03 255.00 346.04 279.00 345.95 C 278.99 343.98 278.99 342.01 278.98 340.05 C 254.99 339.96 231.00 339.96 207.01 340.05 Z" />
<path fill="#ffffff" opacity="1.00" d=" M 103.62 390.59 C 104.61 390.95 105.61 391.31 106.62 391.66 C 113.61 395.11 121.50 393.96 129.00 394.00 C 202.00 394.00 275.00 394.00 348.00 394.00 C 355.50 393.97 363.39 395.09 370.39 391.67 C 371.38 391.32 372.38 390.96 373.38 390.61 C 372.13 393.42 370.67 396.13 369.06 398.76 C 360.71 398.91 352.36 399.13 344.00 399.00 C 270.00 399.01 196.00 398.98 122.01 399.02 C 117.31 398.92 112.62 398.85 107.93 398.77 C 106.32 396.13 104.86 393.42 103.62 390.59 Z" />
</g>
<g id="#c5ddedff">
<path fill="#c5dded" opacity="1.00" d=" M 103.23 104.00 C 103.15 98.96 103.06 93.89 103.70 88.88 C 103.60 182.25 103.71 275.63 103.65 369.00 C 103.66 373.67 103.26 378.37 103.80 383.03 C 104.12 386.35 106.20 389.08 107.97 391.79 C 107.63 391.75 106.95 391.69 106.62 391.66 C 105.61 391.31 104.61 390.95 103.62 390.59 C 104.86 393.42 106.32 396.13 107.93 398.77 C 107.62 398.74 107.01 398.69 106.70 398.67 C 105.71 398.30 104.73 397.93 103.75 397.58 C 103.78 397.90 103.85 398.56 103.88 398.89 C 102.43 392.69 103.61 386.30 103.25 380.01 C 103.21 288.01 103.25 196.00 103.23 104.00 Z" />
</g>
<g id="#cae0eeff">
<path fill="#cae0ee" opacity="1.00" d=" M 373.31 88.87 C 374.02 94.22 373.85 99.62 373.79 105.00 C 373.80 191.00 373.79 277.00 373.79 363.00 C 373.83 374.93 373.63 386.86 373.87 398.80 L 372.94 398.88 C 372.99 398.53 373.09 397.83 373.14 397.48 C 372.20 397.87 371.26 398.27 370.31 398.65 C 370.00 398.67 369.38 398.73 369.06 398.76 C 370.67 396.13 372.13 393.42 373.38 390.61 C 372.38 390.96 371.38 391.32 370.39 391.67 C 370.05 391.70 369.37 391.76 369.03 391.79 C 370.79 389.08 372.86 386.35 373.20 383.02 C 373.77 378.03 373.30 373.01 373.34 368.00 C 373.31 274.96 373.38 181.91 373.31 88.87 Z" />
</g>
<g id="#808080ff">
<path fill="#808080" opacity="1.00" d=" M 179.96 94.36 C 186.62 93.63 193.32 93.99 200.00 93.99 C 226.33 93.97 252.67 93.98 279.00 93.99 C 285.34 93.96 291.71 93.67 298.04 94.36 C 290.64 97.09 282.69 95.85 275.00 96.00 C 246.65 96.08 218.29 95.86 189.94 96.13 C 186.53 96.15 183.19 95.37 179.96 94.36 Z" />
</g>
<g id="#adadadff">
<path fill="#adadad" opacity="1.00" d=" M 129.88 132.88 C 132.72 129.87 137.15 129.96 140.96 129.90 C 151.32 130.01 161.68 130.00 172.04 129.90 C 175.85 129.96 180.28 129.88 183.12 132.87 C 185.43 134.93 185.59 138.21 186.11 141.05 C 184.39 138.52 182.50 135.65 179.39 134.73 C 176.02 133.81 172.47 133.96 169.01 133.94 C 161.01 134.08 153.00 134.11 145.00 133.95 C 141.20 133.96 137.32 133.74 133.61 134.73 C 130.50 135.64 128.60 138.51 126.87 141.05 C 127.40 138.21 127.58 134.95 129.88 132.88 Z" />
<path fill="#adadad" opacity="1.00" d=" M 129.88 307.88 C 132.72 304.87 137.15 304.95 140.96 304.90 C 151.32 305.01 161.68 305.00 172.04 304.90 C 175.85 304.96 180.27 304.88 183.12 307.87 C 185.42 309.94 185.60 313.20 186.12 316.05 C 184.39 313.51 182.49 310.65 179.39 309.73 C 175.68 308.74 171.80 308.96 168.00 308.95 C 159.99 309.11 151.99 309.08 143.99 308.94 C 140.52 308.96 136.98 308.82 133.61 309.73 C 130.50 310.64 128.59 313.51 126.86 316.05 C 127.40 313.21 127.58 309.94 129.88 307.88 Z" />
</g>
<g id="#e1e1e1ff">
<path fill="#e1e1e1" opacity="1.00" d=" M 133.61 134.73 C 137.32 133.74 141.20 133.96 145.00 133.95 C 153.00 134.11 161.01 134.08 169.01 133.94 C 172.47 133.96 176.02 133.81 179.39 134.73 C 182.50 135.65 184.39 138.52 186.11 141.05 C 186.19 148.70 185.86 156.35 185.99 164.00 C 185.89 169.60 186.44 175.24 185.71 180.81 C 185.31 184.00 183.17 186.96 180.12 188.10 C 177.21 189.14 174.06 189.04 171.02 189.09 C 161.68 188.97 152.33 188.95 142.99 189.08 C 139.86 189.06 136.66 189.18 133.61 188.34 C 130.22 187.41 127.71 184.27 127.30 180.81 C 126.56 175.23 127.10 169.60 127.01 164.00 C 127.14 156.35 126.81 148.70 126.87 141.05 C 128.60 138.51 130.50 135.64 133.61 134.73 Z" />
<path fill="#e1e1e1" opacity="1.00" d=" M 133.61 309.73 C 136.98 308.82 140.52 308.96 143.99 308.94 C 151.99 309.08 159.99 309.11 168.00 308.95 C 171.80 308.96 175.68 308.74 179.39 309.73 C 182.49 310.65 184.39 313.51 186.12 316.05 C 186.19 323.69 185.87 331.35 186.00 339.00 C 185.90 344.60 186.44 350.23 185.71 355.81 C 185.30 359.27 182.78 362.41 179.39 363.35 C 176.34 364.18 173.14 364.06 170.00 364.08 C 160.32 363.93 150.64 363.98 140.96 364.08 C 137.15 364.01 132.73 364.09 129.87 361.13 C 126.67 357.98 127.01 353.13 126.92 349.02 C 127.13 338.03 126.93 327.03 126.86 316.05 C 128.59 313.51 130.50 310.64 133.61 309.73 Z" />
</g>
<g id="#ccccccff">
<path fill="#cccccc" opacity="1.00" d=" M 207.01 147.05 C 251.34 146.97 295.66 146.97 339.98 147.05 C 339.98 149.01 339.99 150.98 340.00 152.95 C 295.67 153.04 251.34 153.03 207.01 152.95 C 207.01 150.98 207.01 149.01 207.01 147.05 Z" />
<path fill="#cccccc" opacity="1.00" d=" M 207.01 163.05 C 231.00 162.97 255.00 162.96 278.99 163.05 C 278.99 165.02 278.99 166.98 278.99 168.95 C 255.00 169.04 231.00 169.03 207.01 168.95 C 207.01 166.98 207.01 165.01 207.01 163.05 Z" />
<path fill="#cccccc" opacity="1.00" d=" M 207.01 238.05 C 251.33 237.97 295.66 237.97 339.99 238.05 C 339.98 240.01 339.98 241.98 339.99 243.95 C 295.66 244.03 251.33 244.04 207.01 243.95 C 207.01 241.98 207.01 240.01 207.01 238.05 Z" />
<path fill="#cccccc" opacity="1.00" d=" M 207.01 253.05 C 231.00 252.96 255.00 252.96 279.00 253.05 C 278.99 255.01 278.99 256.98 278.99 258.95 C 255.00 259.03 231.00 259.04 207.01 258.95 C 207.01 256.98 207.01 255.02 207.01 253.05 Z" />
<path fill="#cccccc" opacity="1.00" d=" M 207.00 324.05 C 251.33 323.97 295.66 323.97 339.99 324.05 C 339.99 326.01 339.99 327.98 339.99 329.96 C 295.67 330.03 251.34 330.04 207.02 329.95 C 207.01 327.98 207.01 326.01 207.00 324.05 Z" />
<path fill="#cccccc" opacity="1.00" d=" M 207.01 340.05 C 231.00 339.96 254.99 339.96 278.98 340.05 C 278.99 342.01 278.99 343.98 279.00 345.95 C 255.00 346.04 231.01 346.03 207.02 345.95 C 207.01 343.98 207.01 342.01 207.01 340.05 Z" />
</g>
<g id="#b03a2fff">
<path fill="#b03a2f" opacity="1.00" d=" M 131.56 218.51 C 134.39 216.86 137.80 217.01 140.96 216.93 C 151.32 217.02 161.68 217.03 172.04 216.93 C 175.20 217.01 178.60 216.86 181.44 218.51 C 183.53 219.75 184.43 222.16 185.59 224.17 C 180.96 222.32 176.10 220.81 171.06 220.94 C 161.69 221.07 152.33 221.17 142.96 220.93 C 137.58 220.70 132.35 222.15 127.41 224.18 C 128.57 222.16 129.46 219.75 131.56 218.51 Z" />
</g>
<g id="#c94e3cff">
<path fill="#c94e3c" opacity="1.00" d=" M 127.41 224.18 C 132.35 222.15 137.58 220.70 142.96 220.93 C 152.33 221.17 161.69 221.07 171.06 220.94 C 176.10 220.81 180.96 222.32 185.59 224.17 L 186.12 224.37 C 185.89 233.91 186.04 243.46 186.00 253.00 C 185.94 257.94 186.36 262.91 185.74 267.83 C 185.29 271.55 182.32 274.81 178.66 275.59 C 176.14 276.11 173.56 276.06 171.01 276.07 C 161.34 275.97 151.66 275.96 141.98 276.08 C 139.43 276.06 136.85 276.11 134.34 275.59 C 130.97 274.87 128.13 272.04 127.43 268.66 C 127.04 266.82 126.98 264.93 126.94 263.06 C 126.96 250.17 127.12 237.27 126.89 224.37 L 127.41 224.18 M 164.24 231.10 C 160.50 236.60 157.22 242.41 153.35 247.83 C 151.26 246.42 149.17 245.03 147.06 243.65 C 145.01 246.09 142.99 248.56 141.00 251.06 C 145.53 254.81 150.19 258.40 154.91 261.92 C 160.73 253.76 166.41 245.51 171.94 237.15 C 169.41 235.08 166.85 233.06 164.24 231.10 Z" />
</g>
<g id="#fef9f8ff">
<path fill="#fef9f8" opacity="1.00" d=" M 164.24 231.10 C 166.85 233.06 169.41 235.08 171.94 237.15 C 166.41 245.51 160.73 253.76 154.91 261.92 C 150.19 258.40 145.53 254.81 141.00 251.06 C 142.99 248.56 145.01 246.09 147.06 243.65 C 149.17 245.03 151.26 246.42 153.35 247.83 C 157.22 242.41 160.50 236.60 164.24 231.10 Z" />
</g>
<g id="#b2b2b2ff">
<path fill="#b2b2b2" opacity="1.00" d=" M 106.62 391.66 C 106.95 391.69 107.63 391.75 107.97 391.79 C 112.31 391.85 116.66 391.89 121.00 392.01 C 199.33 391.99 277.67 391.99 356.00 392.01 C 360.34 391.88 364.69 391.85 369.03 391.79 C 369.37 391.76 370.05 391.70 370.39 391.67 C 363.39 395.09 355.50 393.97 348.00 394.00 C 275.00 394.00 202.00 394.00 129.00 394.00 C 121.50 393.96 113.61 395.11 106.62 391.66 Z" />
<path fill="#b2b2b2" opacity="1.00" d=" M 106.70 398.67 C 107.01 398.69 107.62 398.74 107.93 398.77 C 112.62 398.85 117.31 398.92 122.01 399.02 C 196.00 398.98 270.00 399.01 344.00 399.00 C 352.36 399.13 360.71 398.91 369.06 398.76 C 369.38 398.73 370.00 398.67 370.31 398.65 C 363.39 402.23 355.47 400.88 348.00 400.99 C 283.34 401.00 218.67 401.00 154.00 400.99 C 141.98 401.02 129.96 400.91 117.94 401.13 C 114.03 401.27 110.25 400.21 106.70 398.67 Z" />
</g>
<g id="#feffffff">
<path fill="#feffff" opacity="1.00" d=" M 103.75 397.58 C 104.73 397.93 105.71 398.30 106.70 398.67 C 110.25 400.21 114.03 401.27 117.94 401.13 C 129.96 400.91 141.98 401.02 154.00 400.99 C 218.67 401.00 283.34 401.00 348.00 400.99 C 355.47 400.88 363.39 402.23 370.31 398.65 C 371.26 398.27 372.20 397.87 373.14 397.48 C 373.09 397.83 372.99 398.53 372.94 398.88 C 372.73 400.37 372.55 401.86 372.38 403.36 C 368.76 404.74 365.02 406.03 361.10 406.04 C 284.40 405.94 207.70 406.03 131.00 405.99 C 122.16 405.83 112.87 407.29 104.59 403.33 C 104.33 401.85 104.06 400.38 103.88 398.89 C 103.85 398.56 103.78 397.90 103.75 397.58 Z" />
</g>
<g id="#195e8bff">
<path fill="#195e8b" opacity="1.00" d=" M 104.59 403.33 C 112.87 407.29 122.16 405.83 131.00 405.99 C 207.70 406.03 284.40 405.94 361.10 406.04 C 365.02 406.03 368.76 404.74 372.38 403.36 C 370.76 405.09 369.19 407.29 366.65 407.60 C 361.81 408.45 356.88 407.97 352.00 408.02 C 276.66 408.02 201.33 408.02 126.00 408.02 C 120.78 407.94 115.51 408.48 110.35 407.60 C 107.79 407.29 106.22 405.07 104.59 403.33 Z" />
</g>
<g id="#1b699bfe">
<path fill="#1b699b" opacity="1.00" d=" M 78.75 419.27 C 81.01 421.32 83.11 423.98 86.25 424.64 C 89.46 425.25 92.75 425.11 96.00 425.10 C 106.33 424.89 116.67 425.04 127.00 425.00 C 214.02 425.03 301.05 424.93 388.07 425.06 C 392.70 425.47 396.33 422.44 399.26 419.28 C 398.25 422.51 397.20 426.31 393.81 427.82 C 389.14 429.76 383.91 428.84 378.99 429.02 C 282.97 428.99 186.95 428.98 90.92 429.03 C 87.97 428.94 84.71 428.71 82.40 426.62 C 80.22 424.78 79.65 421.84 78.75 419.27 Z" />
</g>
</svg>
