<?xml version="1.0" encoding="UTF-8" ?>
<!DOCTYPE svg PUBLIC "-//W3C//DTD SVG 1.1//EN" "http://www.w3.org/Graphics/SVG/1.1/DTD/svg11.dtd">
<svg width="512pt" height="512pt" viewBox="0 0 512 512" version="1.1" xmlns="http://www.w3.org/2000/svg">
<g id="#8788899c">
<path fill="#878889" opacity="0.61" d=" M 237.88 14.72 C 241.01 14.24 244.18 14.14 247.34 14.32 C 246.17 14.42 245.01 14.51 243.86 14.58 C 241.86 14.67 239.87 14.68 237.88 14.72 Z" />
<path fill="#878889" opacity="0.61" d=" M 237.89 499.29 C 239.88 499.32 241.88 499.33 243.88 499.42 C 245.03 499.49 246.18 499.58 247.33 499.68 C 244.18 499.85 241.01 499.76 237.89 499.29 Z" />
</g>
<g id="#d9dadbff">
<path fill="#d9dadb" opacity="1.00" d=" M 247.34 14.32 C 253.44 13.78 259.58 13.95 265.69 14.29 C 268.84 14.49 272.00 14.58 275.15 14.75 C 276.85 14.86 278.54 15.08 280.20 15.47 C 281.66 15.91 283.17 16.14 284.70 16.03 C 286.19 15.98 287.67 16.12 289.14 16.43 C 290.25 16.96 291.47 17.23 292.71 17.12 C 297.70 17.25 302.57 18.51 307.44 19.52 C 355.53 29.83 400.26 55.23 433.72 91.28 C 463.64 123.26 484.60 163.53 493.67 206.38 C 494.61 210.98 495.77 215.58 495.89 220.30 C 495.77 221.53 496.05 222.75 496.59 223.87 C 496.93 225.29 497.06 226.75 496.99 228.22 C 496.80 229.46 497.01 230.70 497.48 231.85 C 498.00 233.82 498.14 235.86 498.27 237.89 C 498.39 241.03 498.51 244.17 498.72 247.31 C 499.14 253.76 499.11 260.24 498.74 266.70 C 498.57 269.50 498.46 272.30 498.33 275.10 C 498.20 277.14 498.00 279.19 497.53 281.20 C 497.09 282.65 496.87 284.17 496.98 285.70 C 497.02 287.19 496.89 288.67 496.58 290.13 C 496.04 291.24 495.76 292.46 495.89 293.70 C 495.74 298.98 494.37 304.11 493.31 309.26 C 482.89 357.04 457.57 401.45 421.72 434.71 C 389.74 464.64 349.47 485.60 306.62 494.66 C 302.02 495.61 297.42 496.77 292.70 496.88 C 291.46 496.76 290.24 497.03 289.13 497.57 C 287.67 497.88 286.19 498.01 284.69 497.97 C 283.17 497.86 281.66 498.08 280.20 498.53 C 278.54 498.92 276.85 499.13 275.15 499.25 C 272.00 499.41 268.85 499.50 265.70 499.71 C 259.58 500.05 253.44 500.22 247.33 499.68 C 246.18 499.58 245.03 499.49 243.88 499.42 C 244.11 459.96 243.87 420.49 244.00 381.02 C 271.69 381.00 299.37 380.99 327.06 381.02 C 335.58 381.07 344.36 378.55 350.81 372.82 C 356.69 367.60 359.73 359.73 359.93 351.97 C 360.27 343.82 357.44 336.00 354.47 328.55 C 351.64 321.29 347.96 314.40 344.84 307.26 C 348.63 303.30 352.60 298.88 353.30 293.21 C 354.24 286.85 353.88 280.40 353.90 274.00 C 353.89 259.00 353.90 244.00 353.90 229.00 C 353.90 221.82 353.73 214.64 354.19 207.47 C 355.77 206.90 357.45 206.52 358.96 205.74 C 360.54 204.39 360.06 201.69 358.45 200.59 C 356.05 199.88 353.52 199.96 351.05 199.91 C 338.35 200.04 325.64 200.04 312.94 199.91 C 310.49 199.97 307.96 199.86 305.61 200.66 C 303.95 201.52 303.77 203.72 304.44 205.28 C 306.11 206.27 307.99 206.81 309.80 207.49 C 310.14 212.65 310.16 217.83 310.11 223.00 C 310.01 231.28 310.48 239.59 309.59 247.84 C 303.52 239.05 298.00 229.89 291.75 221.22 C 289.85 218.38 287.44 215.55 287.19 211.99 C 286.81 207.67 287.11 203.33 287.10 199.00 C 287.14 180.01 287.06 161.03 287.12 142.04 C 292.70 141.70 298.67 143.03 303.98 140.94 C 305.59 138.25 305.35 134.76 304.03 132.00 C 301.54 130.87 298.74 130.97 296.06 130.91 C 278.70 131.08 261.33 130.97 243.97 130.97 C 243.72 92.18 243.94 53.38 243.86 14.58 C 245.01 14.51 246.17 14.42 247.34 14.32 Z" />
</g>
<g id="#7778788d">
<path fill="#777878" opacity="0.55" d=" M 265.69 14.29 C 268.85 14.18 272.02 14.29 275.15 14.75 C 272.00 14.58 268.84 14.49 265.69 14.29 Z" />
<path fill="#777878" opacity="0.55" d=" M 265.70 499.71 C 268.85 499.50 272.00 499.41 275.15 499.25 C 272.02 499.71 268.85 499.81 265.70 499.71 Z" />
</g>
<g id="#6f71717d">
<path fill="#6f7171" opacity="0.49" d=" M 227.22 16.03 C 227.15 14.27 230.29 13.96 230.85 15.53 C 229.69 16.01 228.45 16.20 227.22 16.03 Z" />
<path fill="#6f7171" opacity="0.49" d=" M 227.22 497.98 C 228.45 497.80 229.69 497.99 230.85 498.48 C 230.29 500.03 227.16 499.73 227.22 497.98 Z" />
</g>
<g id="#e6eaeaff">
<path fill="#e6eaea" opacity="1.00" d=" M 230.85 15.53 C 233.14 14.92 235.52 14.80 237.88 14.72 C 239.87 14.68 241.86 14.67 243.86 14.58 C 243.94 53.38 243.72 92.18 243.97 130.97 C 233.95 131.03 223.93 130.92 213.91 130.94 C 211.65 131.20 208.14 130.73 207.33 133.51 C 206.68 136.03 206.37 139.61 208.73 141.32 C 213.67 142.68 218.89 141.75 223.94 142.15 C 224.22 146.09 224.39 150.04 224.39 154.00 C 224.31 168.67 224.36 183.33 224.35 198.00 C 224.31 203.64 224.61 209.30 224.06 214.93 C 222.26 218.38 219.68 221.33 217.55 224.57 C 204.75 243.61 192.28 262.89 180.72 282.71 C 172.90 296.15 165.27 309.76 159.07 324.04 C 156.08 331.08 153.22 338.27 151.83 345.82 C 151.35 348.92 151.34 352.08 151.80 355.19 C 152.87 361.87 155.87 368.46 161.07 372.93 C 167.32 378.43 175.75 380.81 183.95 381.03 C 184.06 411.02 183.95 441.01 184.00 471.00 C 183.97 476.91 184.88 483.06 182.53 488.69 C 138.87 474.74 99.20 448.39 69.82 413.16 C 44.39 382.89 26.52 346.31 18.33 307.62 C 17.38 303.02 16.22 298.42 16.11 293.71 C 16.23 292.47 15.95 291.25 15.42 290.14 C 15.10 288.67 14.97 287.19 15.02 285.70 C 15.13 284.17 14.91 282.65 14.46 281.20 C 14.07 279.54 13.86 277.84 13.75 276.15 C 13.59 272.99 13.48 269.84 13.28 266.69 C 13.00 260.74 12.59 254.73 13.45 248.81 C 13.87 246.55 14.08 244.26 14.04 241.97 C 14.09 240.47 14.06 238.97 13.96 237.47 C 13.91 235.58 13.97 233.66 14.49 231.84 C 14.98 230.69 15.19 229.45 15.01 228.22 C 14.93 226.74 15.07 225.29 15.41 223.87 C 15.95 222.75 16.23 221.53 16.11 220.29 C 16.26 215.02 17.63 209.88 18.69 204.74 C 29.06 157.19 54.19 112.98 89.76 79.77 C 121.83 49.59 162.30 28.45 205.38 19.34 C 209.97 18.40 214.57 17.23 219.29 17.13 C 220.53 17.24 221.75 16.97 222.86 16.43 C 224.29 16.09 225.74 15.95 227.22 16.03 C 228.45 16.20 229.69 16.01 230.85 15.53 Z" />
</g>
<g id="#7676778b">
<path fill="#767677" opacity="0.55" d=" M 280.20 15.47 C 281.04 13.95 284.63 14.09 284.70 16.03 C 283.17 16.14 281.66 15.91 280.20 15.47 Z" />
<path fill="#767677" opacity="0.55" d=" M 280.20 498.53 C 281.66 498.08 283.17 497.86 284.69 497.97 C 284.63 499.91 281.04 500.05 280.20 498.53 Z" />
</g>
<g id="#696a6a76">
<path fill="#696a6a" opacity="0.46" d=" M 219.29 17.13 C 219.13 15.38 222.25 14.88 222.86 16.43 C 221.75 16.97 220.53 17.24 219.29 17.13 Z" />
<path fill="#696a6a" opacity="0.46" d=" M 219.29 496.88 C 220.53 496.76 221.75 497.04 222.87 497.58 C 222.26 499.12 219.14 498.62 219.29 496.88 Z" />
</g>
<g id="#64656576">
<path fill="#646565" opacity="0.46" d=" M 289.14 16.43 C 289.74 14.86 292.86 15.37 292.71 17.12 C 291.47 17.23 290.25 16.96 289.14 16.43 Z" />
<path fill="#646565" opacity="0.46" d=" M 289.13 497.57 C 290.24 497.03 291.46 496.76 292.70 496.88 C 292.85 498.62 289.73 499.12 289.13 497.57 Z" />
</g>
<g id="#010202ff">
<path fill="#010202" opacity="1.00" d=" M 207.33 133.51 C 208.14 130.73 211.65 131.20 213.91 130.94 C 223.93 130.92 233.95 131.03 243.97 130.97 C 261.33 130.97 278.70 131.08 296.06 130.91 C 298.74 130.97 301.54 130.87 304.03 132.00 C 305.35 134.76 305.59 138.25 303.98 140.94 C 298.67 143.03 292.70 141.70 287.12 142.04 C 287.06 161.03 287.14 180.01 287.10 199.00 C 287.11 203.33 286.81 207.67 287.19 211.99 C 287.44 215.55 289.85 218.38 291.75 221.22 C 298.00 229.89 303.52 239.05 309.59 247.84 C 309.84 248.20 310.35 248.91 310.61 249.26 C 310.84 240.84 310.57 232.42 310.66 224.00 C 310.61 218.59 310.95 213.17 310.56 207.77 L 309.80 207.49 C 307.99 206.81 306.11 206.27 304.44 205.28 C 303.77 203.72 303.95 201.52 305.61 200.66 C 307.96 199.86 310.49 199.97 312.94 199.91 C 325.64 200.04 338.35 200.04 351.05 199.91 C 353.52 199.96 356.05 199.88 358.45 200.59 C 360.06 201.69 360.54 204.39 358.96 205.74 C 357.45 206.52 355.77 206.90 354.19 207.47 L 353.43 207.76 C 353.04 213.50 353.41 219.25 353.35 225.00 C 353.28 247.74 353.42 270.47 353.30 293.21 C 352.60 298.88 348.63 303.30 344.84 307.26 C 347.96 314.40 351.64 321.29 354.47 328.55 C 357.44 336.00 360.27 343.82 359.93 351.97 C 359.73 359.73 356.69 367.60 350.81 372.82 C 344.36 378.55 335.58 381.07 327.06 381.02 C 299.37 380.99 271.69 381.00 244.00 381.02 C 223.98 380.99 203.96 380.99 183.95 381.03 C 175.75 380.81 167.32 378.43 161.07 372.93 C 155.87 368.46 152.87 361.87 151.80 355.19 C 151.60 352.07 151.61 348.94 151.83 345.82 C 153.22 338.27 156.08 331.08 159.07 324.04 C 165.27 309.76 172.90 296.15 180.72 282.71 C 192.28 262.89 204.75 243.61 217.55 224.57 C 219.68 221.33 222.26 218.38 224.06 214.93 C 224.53 212.67 224.71 210.37 224.75 208.07 C 224.69 186.12 224.55 164.16 224.85 142.21 L 223.94 142.15 C 218.89 141.75 213.67 142.68 208.73 141.32 C 206.37 139.61 206.68 136.03 207.33 133.51 M 235.03 141.99 C 234.97 163.32 235.00 184.66 235.01 206.00 C 234.93 209.87 235.43 213.83 234.60 217.64 C 233.02 221.19 230.40 224.12 228.30 227.35 C 224.33 233.28 219.99 239.00 216.65 245.32 L 215.49 245.35 L 216.34 245.43 C 211.79 251.93 207.61 258.68 203.38 265.39 C 194.04 280.55 184.86 295.83 176.63 311.64 C 172.35 319.63 168.50 327.86 165.32 336.36 C 163.54 341.33 161.74 346.52 162.19 351.88 C 162.58 356.73 164.28 361.71 167.92 365.10 C 171.16 368.07 175.46 369.81 179.82 370.27 C 184.52 370.89 189.27 370.73 194.00 370.67 C 234.00 370.67 274.00 370.68 314.00 370.66 C 320.38 370.50 326.80 371.18 333.14 370.20 C 339.29 369.31 345.16 365.44 347.63 359.62 C 350.39 353.28 349.68 345.98 347.49 339.58 C 344.54 330.92 340.72 322.57 336.54 314.45 C 324.22 290.82 310.32 268.04 295.69 245.78 L 294.96 245.62 C 292.69 240.33 289.06 235.82 285.93 231.05 C 283.07 226.60 279.77 222.45 276.87 218.04 C 276.53 198.03 276.85 178.01 276.71 158.00 C 276.60 152.63 277.20 147.22 276.37 141.88 C 265.59 142.16 254.81 141.89 244.03 142.04 C 241.03 142.01 238.03 142.00 235.03 141.99 M 316.09 207.16 C 316.37 216.42 316.37 225.69 316.11 234.96 C 316.37 241.66 316.14 248.36 316.20 255.06 C 316.13 257.47 316.88 259.81 318.19 261.82 C 323.39 270.03 328.36 278.38 333.23 286.79 C 336.12 291.73 338.59 296.92 341.95 301.58 C 343.79 299.47 345.77 297.36 346.69 294.66 C 348.02 290.93 348.01 286.91 348.04 283.00 C 347.93 266.96 348.05 250.91 347.99 234.87 C 347.99 225.59 348.03 216.31 347.97 207.03 C 337.62 206.99 327.26 206.94 316.90 207.07 L 316.09 207.16 Z" />
</g>
<g id="#848686ff">
<path fill="#848686" opacity="1.00" d=" M 223.94 142.15 L 224.85 142.21 C 224.55 164.16 224.69 186.12 224.75 208.07 C 224.71 210.37 224.53 212.67 224.06 214.93 C 224.61 209.30 224.31 203.64 224.35 198.00 C 224.36 183.33 224.31 168.67 224.39 154.00 C 224.39 150.04 224.22 146.09 223.94 142.15 Z" />
</g>
<g id="#e1e4e5ff">
<path fill="#e1e4e5" opacity="1.00" d=" M 235.03 141.99 C 238.03 142.00 241.03 142.01 244.03 142.04 C 244.09 166.03 244.04 190.02 244.06 214.00 C 244.08 223.39 243.90 232.79 244.28 242.18 C 240.50 244.15 236.22 244.72 232.04 245.12 C 226.91 245.46 221.78 245.27 216.65 245.32 C 219.99 239.00 224.33 233.28 228.30 227.35 C 230.40 224.12 233.02 221.19 234.60 217.64 C 235.43 213.83 234.93 209.87 235.01 206.00 C 235.00 184.66 234.97 163.32 235.03 141.99 Z" />
</g>
<g id="#d8d9daff">
<path fill="#d8d9da" opacity="1.00" d=" M 244.03 142.04 C 254.81 141.89 265.59 142.16 276.37 141.88 C 276.31 161.58 276.38 181.29 276.35 201.00 C 276.36 206.68 275.92 212.41 276.87 218.04 C 279.77 222.45 283.07 226.60 285.93 231.05 C 289.06 235.82 292.69 240.33 294.96 245.62 C 290.32 245.26 287.67 240.92 283.56 239.40 C 277.44 237.75 271.45 240.78 266.76 244.48 C 263.17 242.05 259.49 239.09 254.95 238.96 C 251.09 238.62 247.59 240.46 244.28 242.18 C 243.90 232.79 244.08 223.39 244.06 214.00 C 244.04 190.02 244.09 166.03 244.03 142.04 M 258.46 180.33 C 254.88 181.45 255.37 187.59 259.21 187.90 C 261.97 188.66 264.62 185.95 263.90 183.21 C 263.68 180.64 260.67 179.35 258.46 180.33 M 262.22 196.11 C 260.88 196.62 260.44 198.49 261.61 199.39 C 262.59 200.82 265.31 199.72 264.98 198.01 C 265.16 196.54 263.51 195.55 262.22 196.11 M 275.11 232.89 C 275.09 235.20 278.86 235.73 279.85 233.78 C 279.86 232.31 279.23 230.92 279.05 229.48 C 277.65 230.50 274.34 230.40 275.11 232.89 Z" />
</g>
<g id="#919192ff">
<path fill="#919192" opacity="1.00" d=" M 276.37 141.88 C 277.20 147.22 276.60 152.63 276.71 158.00 C 276.85 178.01 276.53 198.03 276.87 218.04 C 275.92 212.41 276.36 206.68 276.35 201.00 C 276.38 181.29 276.31 161.58 276.37 141.88 Z" />
</g>
<g id="#398fc9ff">
<path fill="#398fc9" opacity="1.00" d=" M 258.46 180.33 C 260.67 179.35 263.68 180.64 263.90 183.21 C 264.62 185.95 261.97 188.66 259.21 187.90 C 255.37 187.59 254.88 181.45 258.46 180.33 Z" />
</g>
<g id="#3a8fc9ff">
<path fill="#3a8fc9" opacity="1.00" d=" M 262.22 196.11 C 263.51 195.55 265.16 196.54 264.98 198.01 C 265.31 199.72 262.59 200.82 261.61 199.39 C 260.44 198.49 260.88 196.62 262.22 196.11 Z" />
</g>
<g id="#242424ff">
<path fill="#242424" opacity="1.00" d=" M 309.80 207.49 L 310.56 207.77 C 310.95 213.17 310.61 218.59 310.66 224.00 C 310.57 232.42 310.84 240.84 310.61 249.26 C 310.35 248.91 309.84 248.20 309.59 247.84 C 310.48 239.59 310.01 231.28 310.11 223.00 C 310.16 217.83 310.14 212.65 309.80 207.49 Z" />
</g>
<g id="#919293ff">
<path fill="#919293" opacity="1.00" d=" M 316.09 207.16 L 316.90 207.07 C 316.55 216.37 316.37 225.69 317.05 234.97 L 316.11 234.96 C 316.37 225.69 316.37 216.42 316.09 207.16 Z" />
</g>
<g id="#dadbdcff">
<path fill="#dadbdc" opacity="1.00" d=" M 316.90 207.07 C 327.26 206.94 337.62 206.99 347.97 207.03 C 348.03 216.31 347.99 225.59 347.99 234.87 C 345.11 233.98 342.23 232.89 339.20 232.73 C 336.02 232.86 333.13 234.43 330.00 234.84 C 325.70 235.39 321.36 234.99 317.05 234.97 C 316.37 225.69 316.55 216.37 316.90 207.07 Z" />
</g>
<g id="#262627ff">
<path fill="#262627" opacity="1.00" d=" M 353.43 207.76 L 354.19 207.47 C 353.73 214.64 353.90 221.82 353.90 229.00 C 353.90 244.00 353.89 259.00 353.90 274.00 C 353.88 280.40 354.24 286.85 353.30 293.21 C 353.42 270.47 353.28 247.74 353.35 225.00 C 353.41 219.25 353.04 213.50 353.43 207.76 Z" />
</g>
<g id="#6c6e6e76">
<path fill="#6c6e6e" opacity="0.46" d=" M 15.41 223.87 C 13.86 223.25 14.36 220.14 16.11 220.29 C 16.23 221.53 15.95 222.75 15.41 223.87 Z" />
<path fill="#6c6e6e" opacity="0.46" d=" M 15.42 290.14 C 15.95 291.25 16.23 292.47 16.11 293.71 C 14.36 293.86 13.86 290.74 15.42 290.14 Z" />
</g>
<g id="#66676776">
<path fill="#666767" opacity="0.46" d=" M 495.89 220.30 C 497.63 220.14 498.13 223.25 496.59 223.87 C 496.05 222.75 495.77 221.53 495.89 220.30 Z" />
<path fill="#666767" opacity="0.46" d=" M 495.89 293.70 C 495.76 292.46 496.04 291.24 496.58 290.13 C 498.13 290.73 497.63 293.86 495.89 293.70 Z" />
</g>
<g id="#7376767d">
<path fill="#737676" opacity="0.49" d=" M 14.49 231.84 C 12.93 231.28 13.26 228.15 15.01 228.22 C 15.19 229.45 14.98 230.69 14.49 231.84 Z" />
</g>
<g id="#6d6d6e7d">
<path fill="#6d6d6e" opacity="0.49" d=" M 496.99 228.22 C 498.75 228.15 499.04 231.31 497.48 231.85 C 497.01 230.70 496.80 229.46 496.99 228.22 Z" />
</g>
<g id="#3f92caff">
<path fill="#3f92ca" opacity="1.00" d=" M 275.11 232.89 C 274.34 230.40 277.65 230.50 279.05 229.48 C 279.23 230.92 279.86 232.31 279.85 233.78 C 278.86 235.73 275.09 235.20 275.11 232.89 Z" />
</g>
<g id="#c74c3dff">
<path fill="#c74c3d" opacity="1.00" d=" M 330.00 234.84 C 333.13 234.43 336.02 232.86 339.20 232.73 C 342.23 232.89 345.11 233.98 347.99 234.87 C 348.05 250.91 347.93 266.96 348.04 283.00 C 348.01 286.91 348.02 290.93 346.69 294.66 C 345.77 297.36 343.79 299.47 341.95 301.58 C 338.59 296.92 336.12 291.73 333.23 286.79 C 328.36 278.38 323.39 270.03 318.19 261.82 C 316.88 259.81 316.13 257.47 316.20 255.06 C 316.14 248.36 316.37 241.66 316.11 234.96 L 317.05 234.97 C 321.36 234.99 325.70 235.39 330.00 234.84 M 337.53 240.34 C 334.65 241.82 333.89 245.76 335.36 248.49 C 337.30 251.31 341.98 251.98 344.40 249.40 C 346.90 246.95 346.42 242.26 343.50 240.36 C 341.67 239.41 339.36 239.39 337.53 240.34 M 332.94 257.77 C 332.88 259.25 332.88 260.74 332.94 262.24 C 334.18 262.36 335.43 262.56 336.69 262.65 C 338.42 261.43 338.33 258.60 336.70 257.34 C 335.44 257.44 334.19 257.62 332.94 257.77 Z" />
</g>
<g id="#5557575d">
<path fill="#555757" opacity="0.36" d=" M 13.64 241.94 C 12.38 241.01 12.07 237.46 13.96 237.47 C 14.06 238.97 14.09 240.47 14.04 241.97 L 13.64 241.94 Z" />
</g>
<g id="#7a7b7c8d">
<path fill="#7a7b7c" opacity="0.55" d=" M 498.27 237.89 C 498.72 241.01 498.83 244.16 498.72 247.31 C 498.51 244.17 498.39 241.03 498.27 237.89 Z" />
</g>
<g id="#4a9dd2ff">
<path fill="#4a9dd2" opacity="1.00" d=" M 244.28 242.18 C 247.59 240.46 251.09 238.62 254.95 238.96 C 259.49 239.09 263.17 242.05 266.76 244.48 C 271.45 240.78 277.44 237.75 283.56 239.40 C 287.67 240.92 290.32 245.26 294.96 245.62 L 295.69 245.78 C 310.32 268.04 324.22 290.82 336.54 314.45 C 340.72 322.57 344.54 330.92 347.49 339.58 C 349.68 345.98 350.39 353.28 347.63 359.62 C 345.16 365.44 339.29 369.31 333.14 370.20 C 327.77 370.46 322.38 370.31 317.00 370.34 C 271.27 370.27 225.54 370.43 179.82 370.27 C 175.46 369.81 171.16 368.07 167.92 365.10 C 164.28 361.71 162.58 356.73 162.19 351.88 C 161.74 346.52 163.54 341.33 165.32 336.36 C 168.50 327.86 172.35 319.63 176.63 311.64 C 184.86 295.83 194.04 280.55 203.38 265.39 C 207.61 258.68 211.79 251.93 216.34 245.43 C 221.56 246.05 226.83 245.74 232.04 245.12 C 236.22 244.72 240.50 244.15 244.28 242.18 M 274.37 285.49 C 270.44 286.06 266.92 288.86 265.67 292.66 C 263.79 297.62 266.41 303.69 271.24 305.83 C 275.06 307.73 279.98 307.06 283.12 304.14 C 286.44 301.01 287.60 295.67 285.55 291.54 C 283.60 287.43 278.90 284.76 274.37 285.49 M 300.43 326.50 C 295.79 328.11 292.08 332.06 290.71 336.78 C 288.48 343.76 292.28 352.01 298.94 355.00 C 304.79 357.62 312.41 356.72 316.78 351.79 C 322.32 346.26 322.49 336.52 317.24 330.75 C 313.25 325.94 306.22 324.47 300.43 326.50 M 240.40 327.43 C 237.11 328.03 234.43 331.44 235.19 334.81 C 235.64 337.65 238.22 339.78 241.06 339.91 C 245.24 340.40 248.80 335.59 247.37 331.71 C 246.44 328.90 243.38 326.79 240.40 327.43 Z" />
</g>
<g id="#b7d8f8ff">
<path fill="#b7d8f8" opacity="1.00" d=" M 337.53 240.34 C 339.36 239.39 341.67 239.41 343.50 240.36 C 346.42 242.26 346.90 246.95 344.40 249.40 C 341.98 251.98 337.30 251.31 335.36 248.49 C 333.89 245.76 334.65 241.82 337.53 240.34 Z" />
</g>
<g id="#a9acacb8">
<path fill="#a9acac" opacity="0.72" d=" M 13.64 241.94 L 14.04 241.97 C 14.08 244.26 13.87 246.55 13.45 248.81 C 12.14 246.91 12.19 243.77 13.64 241.94 Z" />
</g>
<g id="#94bcd7ff">
<path fill="#94bcd7" opacity="1.00" d=" M 215.49 245.35 L 216.65 245.32 C 221.78 245.27 226.91 245.46 232.04 245.12 C 226.83 245.74 221.56 246.05 216.34 245.43 L 215.49 245.35 Z" />
</g>
<g id="#bec4e8ff">
<path fill="#bec4e8" opacity="1.00" d=" M 332.94 257.77 C 334.19 257.62 335.44 257.44 336.70 257.34 C 338.33 258.60 338.42 261.43 336.69 262.65 C 335.43 262.56 334.18 262.36 332.94 262.24 C 332.88 260.74 332.88 259.25 332.94 257.77 Z" />
</g>
<g id="#8284848d">
<path fill="#828484" opacity="0.55" d=" M 13.28 266.69 C 13.48 269.84 13.59 272.99 13.75 276.15 C 13.28 273.02 13.16 269.85 13.28 266.69 Z" />
</g>
<g id="#82828396">
<path fill="#828283" opacity="0.59" d=" M 498.33 275.10 C 498.46 272.30 498.57 269.50 498.74 266.70 C 498.75 269.50 498.65 272.31 498.33 275.10 Z" />
</g>
<g id="#7f82828b">
<path fill="#7f8282" opacity="0.55" d=" M 14.46 281.20 C 14.91 282.65 15.13 284.17 15.02 285.70 C 13.08 285.63 12.94 282.04 14.46 281.20 Z" />
</g>
<g id="#7879798b">
<path fill="#787979" opacity="0.55" d=" M 496.98 285.70 C 496.87 284.17 497.09 282.65 497.53 281.20 C 499.05 282.04 498.92 285.63 496.98 285.70 Z" />
</g>
<g id="#b1dffeff">
<path fill="#b1dffe" opacity="1.00" d=" M 274.37 285.49 C 278.90 284.76 283.60 287.43 285.55 291.54 C 287.60 295.67 286.44 301.01 283.12 304.14 C 279.98 307.06 275.06 307.73 271.24 305.83 C 266.41 303.69 263.79 297.62 265.67 292.66 C 266.92 288.86 270.44 286.06 274.37 285.49 Z" />
</g>
<g id="#b3e0ffff">
<path fill="#b3e0ff" opacity="1.00" d=" M 300.43 326.50 C 306.22 324.47 313.25 325.94 317.24 330.75 C 322.49 336.52 322.32 346.26 316.78 351.79 C 312.41 356.72 304.79 357.62 298.94 355.00 C 292.28 352.01 288.48 343.76 290.71 336.78 C 292.08 332.06 295.79 328.11 300.43 326.50 Z" />
</g>
<g id="#afdefdff">
<path fill="#afdefd" opacity="1.00" d=" M 240.40 327.43 C 243.38 326.79 246.44 328.90 247.37 331.71 C 248.80 335.59 245.24 340.40 241.06 339.91 C 238.22 339.78 235.64 337.65 235.19 334.81 C 234.43 331.44 237.11 328.03 240.40 327.43 Z" />
</g>
<g id="#a4aaacff">
<path fill="#a4aaac" opacity="1.00" d=" M 151.80 355.19 C 151.34 352.08 151.35 348.92 151.83 345.82 C 151.61 348.94 151.60 352.07 151.80 355.19 Z" />
</g>
<g id="#1b4f73ff">
<path fill="#1b4f73" opacity="1.00" d=" M 179.82 370.27 C 225.54 370.43 271.27 370.27 317.00 370.34 C 322.38 370.31 327.77 370.46 333.14 370.20 C 326.80 371.18 320.38 370.50 314.00 370.66 C 274.00 370.68 234.00 370.67 194.00 370.67 C 189.27 370.73 184.52 370.89 179.82 370.27 Z" />
</g>
<g id="#e3e6e7ff">
<path fill="#e3e6e7" opacity="1.00" d=" M 183.95 381.03 C 203.96 380.99 223.98 380.99 244.00 381.02 C 243.87 420.49 244.11 459.96 243.88 499.42 C 241.88 499.33 239.88 499.32 237.89 499.29 C 235.52 499.21 233.14 499.09 230.85 498.48 C 229.69 497.99 228.45 497.80 227.22 497.98 C 225.74 498.05 224.29 497.92 222.87 497.58 C 221.75 497.04 220.53 496.76 219.29 496.88 C 217.11 496.85 214.95 496.54 212.80 496.17 C 202.58 494.26 192.48 491.74 182.53 488.69 C 184.88 483.06 183.97 476.91 184.00 471.00 C 183.95 441.01 184.06 411.02 183.95 381.03 Z" />
</g>
<g id="#4647474e">
<path fill="#464747" opacity="0.31" d=" M 88.52 449.32 C 89.82 448.57 92.02 450.30 91.49 451.74 C 90.19 452.50 87.98 450.76 88.52 449.32 Z" />
</g>
</svg>
