<?xml version="1.0" encoding="UTF-8" ?>
<!DOCTYPE svg PUBLIC "-//W3C//DTD SVG 1.1//EN" "http://www.w3.org/Graphics/SVG/1.1/DTD/svg11.dtd">
<svg width="520pt" height="520pt" viewBox="0 0 520 520" version="1.1" xmlns="http://www.w3.org/2000/svg">
<g id="#feffffff">
<path fill="#feffff" opacity="1.00" d=" M 0.00 0.00 L 520.00 0.00 L 520.00 520.00 L 0.00 520.00 L 0.00 0.00 M 275.12 31.91 C 276.06 32.86 277.00 33.81 277.95 34.76 C 273.63 34.52 269.32 34.71 265.01 34.82 C 260.69 34.94 256.53 33.68 252.36 32.75 C 252.79 33.57 253.22 34.39 253.66 35.21 C 251.26 35.83 248.73 36.61 246.29 35.72 C 242.84 34.55 239.19 34.40 235.66 35.33 C 238.20 35.80 240.74 36.23 243.28 36.70 C 239.12 38.19 234.69 37.64 230.72 35.84 C 227.78 36.75 224.85 37.71 221.94 38.70 C 223.30 39.07 224.66 39.44 226.03 39.81 C 221.75 40.43 217.42 40.42 213.13 40.05 C 211.74 39.98 210.36 39.91 208.98 39.85 C 209.65 40.65 210.33 41.45 211.01 42.25 C 209.24 42.34 207.47 42.44 205.70 42.53 C 203.26 41.93 201.50 43.49 200.10 45.26 C 192.25 47.45 184.67 50.47 176.91 52.99 C 164.39 57.32 153.03 64.24 141.43 70.49 C 138.46 72.40 136.48 75.46 133.56 77.44 C 128.69 80.75 124.06 84.41 119.78 88.44 C 120.29 87.19 120.61 85.88 120.99 84.59 C 119.67 85.44 118.36 86.31 117.05 87.19 C 117.40 88.18 117.74 89.17 118.08 90.16 C 112.82 94.87 108.12 100.15 103.21 105.21 C 101.54 107.09 99.20 108.08 96.83 108.75 C 99.69 105.32 102.74 102.05 105.98 98.97 C 108.00 97.12 109.07 94.56 110.08 92.07 C 106.12 95.21 101.21 97.02 97.53 100.49 C 90.94 108.98 84.52 117.63 78.61 126.61 C 77.63 128.13 76.97 129.82 76.33 131.51 C 74.19 133.31 72.44 135.52 70.84 137.80 C 69.89 136.61 68.94 135.43 67.89 134.34 C 65.79 135.86 66.35 138.66 66.19 140.89 C 67.17 140.68 68.16 140.47 69.15 140.26 C 67.54 147.38 61.14 152.70 61.34 160.29 C 61.06 160.79 60.51 161.81 60.23 162.31 C 55.41 167.07 52.82 173.59 50.92 179.98 C 49.24 185.75 45.95 190.94 44.79 196.88 C 44.24 199.73 43.20 202.47 41.72 204.97 C 40.79 203.24 39.88 201.51 38.95 199.78 C 38.25 202.14 37.56 204.50 36.88 206.87 C 38.21 207.43 39.54 207.98 40.87 208.54 C 41.41 216.01 37.32 222.68 36.77 230.01 C 36.53 232.87 37.83 235.53 38.50 238.25 C 39.27 240.88 39.01 243.65 38.75 246.34 C 37.88 247.02 37.04 247.74 36.22 248.49 C 35.57 251.68 35.37 254.95 34.80 258.15 C 34.44 257.32 33.73 255.66 33.38 254.83 C 30.45 257.35 31.15 261.28 31.21 264.71 C 27.92 261.20 26.47 256.52 24.08 252.43 C 23.70 249.96 22.98 247.55 21.70 245.39 C 21.38 246.42 21.10 247.47 20.87 248.53 C 20.55 247.86 19.92 246.52 19.61 245.85 C 19.73 241.66 18.64 237.52 17.10 233.66 C 17.18 236.32 17.39 238.98 17.70 241.62 C 17.25 241.55 16.36 241.40 15.92 241.32 C 16.60 242.27 17.29 243.21 17.97 244.16 C 17.14 245.12 16.31 246.08 15.47 247.03 C 14.54 246.46 13.62 245.88 12.69 245.31 C 13.21 248.69 14.04 252.01 14.48 255.40 C 14.78 257.98 13.25 260.33 13.22 262.88 C 13.37 265.20 14.03 267.45 14.28 269.76 C 13.64 272.87 13.04 276.09 13.99 279.21 C 13.61 284.49 14.61 289.90 17.47 294.42 C 16.24 294.66 15.02 294.92 13.82 295.27 C 15.04 299.62 20.63 301.08 21.35 305.76 C 21.29 309.30 21.29 312.84 21.29 316.39 C 21.19 317.06 20.98 318.40 20.88 319.07 C 22.04 317.95 23.20 316.85 24.38 315.77 C 23.71 320.22 22.75 324.62 21.87 329.04 C 22.91 327.25 23.95 325.46 25.02 323.68 C 25.15 326.39 25.25 329.11 25.29 331.83 C 26.52 330.50 27.74 329.15 29.11 327.97 C 31.67 329.83 32.81 332.91 34.34 335.56 C 33.20 335.13 32.06 334.69 30.92 334.26 C 30.61 335.93 30.30 337.60 29.98 339.28 C 29.19 340.69 28.39 342.11 27.59 343.52 C 26.40 342.95 25.20 342.38 24.01 341.81 C 24.80 345.44 25.23 349.14 25.28 352.85 C 26.09 351.48 26.93 350.12 27.77 348.77 C 28.01 354.92 28.81 361.21 27.18 367.24 C 25.87 372.24 24.39 377.29 24.49 382.51 C 25.38 380.53 26.24 378.51 26.49 376.33 C 27.13 372.04 28.30 367.87 29.77 363.80 C 29.88 365.94 29.98 368.08 30.08 370.22 C 29.46 375.61 29.94 381.04 30.21 386.44 C 31.11 385.76 32.73 385.30 32.53 383.88 C 32.67 381.59 32.27 379.23 32.94 377.01 C 33.83 374.17 35.27 371.55 36.60 368.90 C 37.59 370.97 38.26 373.30 39.84 375.02 C 41.07 375.43 42.36 375.60 43.64 375.83 C 44.84 378.20 46.11 380.57 46.90 383.13 C 47.90 386.46 47.03 390.15 48.62 393.33 C 49.73 396.12 51.62 398.83 51.34 401.97 C 50.99 406.44 49.58 410.94 50.63 415.43 C 51.14 417.86 53.40 419.28 54.94 421.03 C 57.01 422.97 57.86 425.75 58.95 428.29 C 58.95 423.62 59.16 418.86 61.07 414.52 C 64.37 416.59 67.19 419.30 69.85 422.12 C 70.09 421.13 70.33 420.15 70.56 419.17 C 72.75 420.46 75.04 421.74 77.63 421.92 C 83.28 422.50 89.04 422.25 94.60 421.11 C 100.11 419.78 105.94 420.42 111.35 421.85 C 116.43 424.34 120.90 427.98 126.19 430.11 C 123.56 427.65 120.72 425.43 117.99 423.10 C 120.35 422.82 122.73 422.60 125.11 422.47 C 125.33 424.07 125.46 425.71 125.92 427.28 C 128.48 429.24 132.37 429.47 133.96 432.60 C 133.78 432.99 133.43 433.76 133.25 434.15 C 132.74 433.33 130.84 432.45 130.42 433.74 C 130.67 435.04 132.36 436.36 133.65 435.89 C 134.67 437.41 136.34 438.30 137.79 439.36 C 141.88 442.22 145.60 446.37 150.72 447.20 C 153.28 450.82 157.35 452.76 161.13 454.83 C 165.98 457.59 171.19 459.61 176.39 461.60 C 182.19 463.72 186.53 468.38 192.11 470.94 C 199.73 475.20 208.67 475.83 216.49 479.58 C 221.13 481.77 226.10 483.27 230.41 486.11 C 237.31 486.89 244.13 488.31 251.06 488.86 C 262.99 490.26 275.02 489.99 287.01 490.03 C 294.58 490.07 302.07 488.80 309.52 487.59 C 316.12 486.47 322.89 486.74 329.44 485.27 C 339.26 482.96 349.22 481.12 358.76 477.74 C 365.58 475.79 371.56 471.85 378.11 469.24 C 383.50 467.04 388.88 464.78 394.03 462.05 C 407.27 455.17 418.82 445.63 430.64 436.64 C 436.88 431.94 442.57 426.57 448.44 421.42 C 452.00 418.27 454.52 414.18 457.50 410.52 C 464.68 401.69 472.25 393.13 478.71 383.74 C 483.44 381.04 488.08 377.62 490.68 372.70 C 493.34 367.51 492.88 361.49 492.84 355.85 C 496.21 348.01 499.66 340.16 501.90 331.90 C 503.66 326.00 504.80 319.95 505.95 313.91 C 508.92 300.80 510.71 287.44 511.82 274.05 C 513.16 257.41 510.70 240.83 508.76 224.34 C 508.70 220.63 508.72 216.92 508.76 213.22 L 507.59 213.33 C 506.56 209.16 504.90 205.16 504.09 200.93 C 502.71 194.23 499.94 187.94 497.31 181.66 C 494.44 174.87 493.84 167.25 490.21 160.76 C 488.67 157.92 485.05 155.81 485.81 152.16 C 484.34 149.37 482.72 146.65 480.84 144.13 C 478.72 141.28 475.98 138.94 474.05 135.95 C 472.18 133.08 470.86 129.90 468.92 127.08 C 466.41 123.33 462.92 120.41 460.00 117.00 C 457.70 114.30 455.29 111.71 452.82 109.16 C 449.86 106.13 447.57 102.40 444.02 99.99 C 441.09 97.96 438.10 95.97 435.58 93.42 C 430.06 87.91 424.04 82.92 417.99 78.01 C 414.10 74.87 410.52 71.26 406.02 69.00 C 402.42 67.17 398.58 65.87 395.03 63.94 C 390.35 61.39 385.84 58.55 381.36 55.68 C 376.85 52.74 371.60 51.35 366.65 49.36 C 355.58 44.99 344.10 41.74 332.43 39.45 C 326.88 38.47 321.82 35.63 316.22 34.96 C 314.21 34.54 312.18 34.16 310.16 33.80 C 310.14 34.34 310.09 35.42 310.07 35.96 C 310.76 35.84 312.13 35.58 312.81 35.45 C 314.25 36.33 315.70 37.20 317.13 38.09 C 314.33 37.66 311.55 37.13 308.79 36.54 C 308.61 35.45 308.43 34.36 308.26 33.28 C 306.95 33.36 305.66 33.46 304.36 33.56 C 301.01 33.03 297.64 32.57 294.28 32.14 C 294.80 33.14 295.32 34.15 295.85 35.15 C 294.81 34.87 293.78 34.60 292.76 34.32 C 291.22 33.50 289.80 32.15 287.94 32.24 C 283.67 32.18 279.39 32.32 275.12 31.91 M 91.17 101.12 C 88.16 104.46 84.79 107.79 83.69 112.30 C 88.75 108.14 93.18 103.21 96.97 97.87 C 94.93 98.73 92.71 99.45 91.17 101.12 M 49.19 168.46 C 47.90 170.83 48.37 173.68 48.32 176.27 C 51.35 173.97 52.15 170.25 52.19 166.64 C 51.16 167.20 50.16 167.80 49.19 168.46 M 39.84 197.22 C 41.20 196.39 42.59 195.58 43.83 194.57 C 44.20 192.61 43.93 190.60 43.83 188.63 C 40.95 190.58 40.45 194.08 39.84 197.22 M 20.15 215.77 C 20.14 217.68 19.99 219.61 20.38 221.50 C 20.84 222.81 22.28 223.39 23.22 224.31 C 23.17 221.18 22.08 218.23 20.15 215.77 M 31.83 236.28 C 33.25 235.21 35.26 234.39 35.55 232.41 C 36.32 229.85 35.44 227.23 34.84 224.75 C 32.30 228.05 31.59 232.20 31.83 236.28 M 2.87 261.38 C 2.97 262.49 3.07 263.61 3.16 264.72 C 4.43 264.23 5.68 263.74 6.95 263.25 C 6.96 262.80 6.99 261.89 7.00 261.44 C 5.62 261.42 4.25 261.40 2.87 261.38 M 8.04 281.66 C 8.31 283.73 8.53 285.84 9.28 287.81 C 11.19 288.61 12.16 286.06 11.42 284.63 C 11.03 282.99 9.19 282.61 8.04 281.66 M 17.41 331.68 C 17.13 333.51 16.87 335.35 16.60 337.19 C 17.88 336.65 19.16 336.12 20.45 335.59 C 19.45 334.27 18.43 332.97 17.41 331.68 M 24.16 335.40 C 22.40 335.46 22.07 338.64 23.94 338.79 C 25.70 338.73 26.03 335.55 24.16 335.40 M 14.29 342.45 C 12.86 343.78 15.15 346.07 16.47 344.63 C 17.90 343.30 15.61 341.01 14.29 342.45 M 19.30 366.26 C 21.57 363.90 23.41 361.11 24.25 357.91 C 21.07 359.57 19.94 362.97 19.30 366.26 M 29.06 398.67 C 29.70 399.72 30.62 400.10 31.82 399.80 C 33.49 395.70 32.23 391.25 31.12 387.19 C 29.83 390.84 28.15 394.73 29.06 398.67 M 22.31 391.59 C 20.91 392.11 20.49 394.32 21.45 395.41 C 23.33 396.03 24.18 391.94 22.31 391.59 M 17.33 413.31 C 15.83 414.30 17.51 416.82 18.97 415.66 C 20.46 414.67 18.79 412.14 17.33 413.31 M 105.67 422.84 C 108.55 426.12 112.22 428.56 116.24 430.22 C 113.48 426.81 109.77 424.34 105.67 422.84 M 86.98 423.73 C 88.23 426.50 90.42 428.63 93.11 430.01 C 92.40 428.41 91.84 426.70 90.71 425.35 C 89.53 424.67 88.24 424.22 86.98 423.73 M 70.45 428.23 C 71.21 429.91 71.94 431.61 72.65 433.32 C 72.79 431.55 72.92 429.79 73.07 428.03 C 72.41 428.08 71.10 428.18 70.45 428.23 M 96.03 431.81 C 97.80 433.66 99.89 435.15 102.21 436.25 C 100.88 433.87 98.69 432.34 96.03 431.81 M 113.61 434.17 C 115.31 435.25 117.01 436.31 118.72 437.38 C 118.45 435.97 118.19 434.57 117.93 433.17 C 116.49 433.50 115.05 433.83 113.61 434.17 M 121.69 436.96 C 124.05 440.47 127.82 442.49 131.21 444.82 C 130.26 440.25 125.65 438.31 121.69 436.96 M 61.26 448.57 C 62.17 449.09 63.05 449.68 63.88 450.32 C 63.60 448.07 63.23 445.84 62.72 443.64 C 62.11 445.23 61.42 446.84 61.26 448.57 M 137.62 447.35 C 140.03 449.80 142.76 451.88 145.50 453.94 C 149.65 458.21 154.77 461.40 160.07 464.05 C 159.44 462.73 159.10 461.14 157.78 460.32 C 151.35 455.57 144.87 450.79 137.62 447.35 M 163.78 464.72 C 165.03 466.09 166.48 467.27 168.09 468.21 C 167.85 465.80 165.89 465.06 163.78 464.72 M 213.03 480.94 C 213.72 481.97 214.41 483.00 215.11 484.04 C 216.09 483.45 217.07 482.86 218.05 482.28 C 216.37 481.82 214.70 481.38 213.03 480.94 Z" />
<path fill="#feffff" opacity="1.00" d=" M 235.58 91.55 C 247.16 88.40 259.14 87.06 271.09 86.26 C 279.05 85.73 286.97 86.78 294.90 87.30 C 301.10 87.74 306.98 89.92 313.06 91.06 C 312.02 90.38 310.99 89.70 309.96 89.01 C 311.58 89.12 313.21 89.20 314.84 89.35 C 315.84 90.30 316.60 91.70 318.09 91.94 C 321.67 92.94 325.45 92.99 329.02 94.06 C 331.72 94.86 334.30 96.03 336.94 97.01 C 341.06 98.60 345.42 99.55 349.41 101.50 C 354.54 103.98 359.41 106.98 364.04 110.29 C 364.23 111.12 364.41 111.95 364.60 112.78 C 355.59 119.62 346.63 126.60 338.70 134.71 C 330.96 142.40 324.14 150.99 318.07 160.06 C 310.78 170.41 304.11 181.22 298.64 192.65 C 292.83 203.69 288.75 215.49 284.06 227.01 C 282.36 231.44 280.36 235.75 278.77 240.22 C 275.06 237.51 271.34 234.62 266.92 233.15 C 257.81 230.10 247.21 231.71 239.58 237.60 C 234.40 241.56 231.18 247.41 228.12 253.04 C 223.29 262.01 220.29 271.87 218.85 281.94 C 217.64 283.76 217.39 285.98 218.09 288.05 C 218.10 291.89 217.81 295.78 218.52 299.58 C 219.09 303.05 223.65 304.09 226.49 302.83 C 229.39 299.07 230.09 293.95 233.62 290.62 C 238.07 286.30 243.65 282.94 249.77 281.73 C 253.22 281.55 256.69 281.59 260.13 281.87 C 261.78 282.15 263.41 282.55 265.04 282.93 C 264.21 285.60 263.40 288.27 262.25 290.82 C 260.26 293.99 257.86 296.87 255.61 299.85 C 252.54 303.87 249.94 308.22 247.73 312.77 C 245.98 316.35 244.50 320.06 243.44 323.90 C 242.91 327.35 242.49 331.01 243.63 334.38 C 244.49 336.82 247.14 337.77 249.29 338.73 C 253.47 340.28 257.82 341.86 262.34 341.75 C 267.25 341.25 271.21 337.92 275.06 335.14 C 278.63 332.40 282.01 329.40 285.07 326.09 C 288.85 322.04 292.21 317.62 294.97 312.81 C 295.70 311.61 296.43 310.42 297.17 309.24 C 298.62 308.32 300.07 307.40 301.45 306.40 C 303.39 309.67 305.53 312.96 306.31 316.74 C 306.47 319.57 306.46 322.41 306.29 325.24 C 305.74 328.37 304.73 331.44 303.19 334.22 C 301.23 337.76 297.59 339.94 295.47 343.36 C 294.78 346.43 297.96 349.39 300.97 349.06 C 305.40 348.50 309.36 346.23 313.32 344.29 C 326.94 337.40 339.02 327.37 348.00 315.00 C 350.32 311.79 352.41 308.33 353.35 304.45 C 355.08 297.15 353.56 289.03 348.85 283.12 C 345.83 279.24 341.52 276.72 337.41 274.18 C 348.16 264.67 359.84 256.19 369.77 245.77 C 385.66 230.33 399.77 212.90 410.51 193.47 C 414.62 186.14 417.39 178.18 420.22 170.30 C 422.05 171.60 423.89 172.88 425.63 174.30 C 426.92 175.42 427.87 176.87 428.77 178.31 C 431.68 183.23 434.22 188.44 435.45 194.05 C 435.79 195.61 436.20 197.16 436.64 198.70 C 437.31 202.60 438.08 206.56 440.16 210.00 C 442.25 213.56 444.87 217.12 444.50 221.50 C 445.44 222.15 446.39 222.79 447.35 223.43 L 446.72 223.62 L 445.99 223.84 C 445.51 223.99 444.55 224.30 444.07 224.45 C 444.10 226.30 444.30 228.16 444.73 229.97 C 444.85 230.37 445.10 231.18 445.22 231.58 C 444.89 232.31 444.56 233.04 444.24 233.77 C 445.28 233.73 446.32 233.70 447.37 233.65 C 446.80 234.71 446.12 235.71 445.58 236.79 C 444.56 241.99 444.90 247.35 445.75 252.55 C 447.57 248.97 448.03 244.88 447.14 240.97 C 447.60 240.67 448.52 240.06 448.97 239.76 C 449.27 242.69 449.87 245.59 449.94 248.54 C 449.60 250.67 449.15 252.77 448.72 254.88 C 449.37 254.65 450.69 254.20 451.34 253.97 C 450.66 255.86 449.16 257.69 449.53 259.80 C 451.90 268.16 450.76 277.01 449.40 285.45 C 447.05 298.09 445.91 311.09 441.10 323.13 C 438.52 329.22 437.77 335.90 435.00 341.92 C 431.52 349.86 427.36 357.53 422.30 364.59 C 421.52 363.75 420.74 362.92 419.97 362.09 C 425.25 355.88 428.25 348.21 430.80 340.58 C 428.68 343.33 426.85 346.29 425.32 349.41 C 422.85 354.38 419.87 359.07 417.14 363.91 C 418.86 364.13 420.57 364.36 422.30 364.59 C 420.06 367.94 417.77 371.32 416.50 375.18 C 415.29 379.27 411.55 381.78 409.65 385.49 C 408.20 388.29 406.38 390.90 404.09 393.08 C 401.39 395.68 398.65 398.55 395.04 399.83 C 393.22 399.85 391.40 399.77 389.58 399.70 C 389.41 399.12 389.09 397.96 388.92 397.38 C 387.68 398.54 386.44 399.70 385.25 400.91 C 383.73 402.46 382.28 404.07 380.75 405.60 C 379.56 406.65 378.38 407.72 377.23 408.83 C 371.98 414.20 366.12 418.94 359.80 423.01 C 357.81 423.77 355.82 424.55 353.82 425.30 C 356.79 425.56 359.74 426.05 362.58 427.00 C 360.80 427.25 358.98 427.34 357.26 427.87 C 355.02 428.68 353.17 430.32 350.89 431.05 C 348.28 431.43 345.63 431.14 343.01 431.04 C 343.42 432.16 343.83 433.28 344.24 434.41 C 343.24 434.72 342.25 435.07 341.26 435.42 C 340.77 434.77 340.29 434.13 339.81 433.49 C 336.12 434.68 332.42 435.85 328.70 436.96 C 332.30 436.92 335.90 436.90 339.48 437.28 C 335.72 438.35 332.07 439.76 328.57 441.50 C 323.13 444.23 316.88 443.71 310.99 443.81 C 305.78 443.78 300.63 445.02 295.42 444.54 C 291.98 444.26 288.52 444.20 285.08 444.43 C 276.35 445.01 267.61 445.66 258.85 445.21 C 253.98 445.02 249.12 444.53 244.32 443.72 C 239.75 442.86 235.13 442.22 230.47 442.35 C 233.50 444.30 237.06 444.93 240.61 444.95 C 244.90 445.43 249.09 446.58 253.40 446.88 C 254.05 447.91 254.72 448.93 255.40 449.95 C 253.77 450.38 252.09 451.28 250.41 450.58 C 243.67 448.32 236.54 447.90 229.62 446.45 C 227.52 446.20 226.04 444.62 224.54 443.30 C 226.40 443.01 228.27 442.75 230.13 442.49 C 220.52 438.68 210.54 435.88 200.87 432.21 C 202.59 430.23 204.18 428.14 205.64 425.96 C 207.05 425.35 208.46 424.76 209.88 424.19 C 209.39 422.79 208.90 421.39 208.42 420.00 C 210.82 418.70 213.73 417.70 215.02 415.08 C 219.32 406.94 222.19 398.04 227.40 390.38 C 232.71 382.08 239.83 375.01 244.19 366.10 C 248.01 359.00 248.62 350.20 254.78 344.46 C 252.05 343.49 249.32 342.54 246.57 341.63 C 245.88 346.00 245.29 350.46 243.55 354.58 C 240.76 361.25 236.47 367.25 231.31 372.31 C 227.31 376.32 222.65 379.63 218.88 383.88 C 215.25 387.84 212.30 392.35 209.06 396.62 C 206.47 398.47 204.78 401.20 203.77 404.18 C 202.94 404.37 202.10 404.57 201.27 404.78 C 200.26 407.08 199.26 409.39 198.27 411.70 C 197.38 411.57 196.49 411.44 195.60 411.31 C 195.28 413.43 194.97 415.55 194.66 417.67 C 195.29 418.45 195.93 419.24 196.57 420.04 C 194.70 420.17 192.82 420.31 190.95 420.44 C 191.12 420.94 191.46 421.93 191.63 422.42 C 192.94 422.45 194.25 422.49 195.56 422.53 C 195.66 423.33 195.75 424.13 195.84 424.94 C 193.80 425.64 191.76 426.35 189.73 427.08 C 187.68 425.91 185.59 424.82 183.50 423.73 C 183.51 424.93 183.52 426.14 183.53 427.36 C 183.26 427.17 182.71 426.78 182.43 426.59 C 179.09 424.15 175.53 422.03 172.09 419.74 C 169.18 417.66 166.25 415.61 163.19 413.78 C 162.92 414.30 162.37 415.34 162.10 415.86 C 161.80 415.89 161.20 415.94 160.90 415.97 C 157.38 415.02 154.53 412.59 151.68 410.44 C 154.34 410.96 156.98 411.62 159.62 412.24 C 156.99 410.22 154.22 408.39 151.32 406.79 C 150.48 407.82 149.65 408.86 148.82 409.90 C 146.40 407.62 143.83 405.50 141.08 403.63 C 144.04 401.09 147.59 398.55 148.36 394.46 C 149.57 388.76 149.92 382.88 149.82 377.07 C 149.86 373.92 147.25 371.79 145.51 369.49 C 142.30 365.91 141.28 361.09 139.04 356.96 C 136.20 351.68 132.11 347.26 128.47 342.55 C 124.16 337.02 121.91 330.29 118.82 324.07 C 114.96 315.28 110.42 306.57 109.02 296.96 C 108.07 290.26 106.06 283.73 105.78 276.95 C 105.56 272.34 105.09 267.76 104.77 263.16 C 104.58 255.71 104.62 248.26 104.77 240.82 C 105.84 226.88 108.80 213.15 112.61 199.72 C 113.99 193.67 116.59 188.00 119.13 182.37 C 120.50 181.84 121.88 181.32 123.25 180.80 C 122.54 180.04 121.83 179.28 121.12 178.52 C 121.72 177.18 122.32 175.85 122.92 174.52 C 124.60 174.47 126.29 174.42 127.97 174.36 C 126.94 173.15 125.91 171.94 124.89 170.73 C 125.12 170.29 125.60 169.41 125.83 168.97 C 127.52 168.18 129.42 167.62 130.80 166.31 C 131.90 164.95 132.58 163.31 133.38 161.77 C 132.48 161.46 131.59 161.15 130.69 160.85 C 132.77 157.73 135.25 154.84 138.59 153.04 C 138.16 152.94 137.30 152.73 136.86 152.63 C 138.78 149.31 142.70 148.08 144.91 145.13 C 145.58 144.01 146.10 142.82 146.68 141.66 C 147.31 140.13 148.98 139.57 150.23 138.68 C 152.99 137.18 154.04 133.91 156.63 132.18 C 163.38 127.52 168.67 121.11 175.43 116.44 C 181.64 110.81 189.15 106.92 196.90 103.86 C 200.64 102.52 204.63 101.93 208.25 100.23 C 216.98 96.28 226.26 93.72 235.58 91.55 M 446.26 252.68 C 444.89 258.90 445.23 265.36 445.85 271.65 C 447.75 267.02 447.90 261.93 447.99 257.00 C 448.17 255.32 446.99 254.05 446.26 252.68 M 440.73 302.65 C 441.31 303.00 442.47 303.71 443.05 304.06 C 443.97 301.52 444.86 298.96 445.64 296.37 C 443.75 298.26 442.14 300.39 440.73 302.65 M 439.51 310.66 C 438.99 312.46 439.05 314.36 438.97 316.23 C 440.58 313.96 441.61 311.36 442.02 308.61 C 441.18 309.29 440.34 309.97 439.51 310.66 M 430.82 339.08 C 433.21 336.52 434.77 333.32 435.13 329.82 C 432.29 332.10 430.96 335.51 430.82 339.08 M 412.22 370.77 C 412.63 371.06 413.46 371.63 413.87 371.91 C 415.04 370.37 415.71 368.54 416.36 366.75 C 414.81 367.90 413.20 369.07 412.22 370.77 M 316.86 439.72 C 320.28 440.46 323.82 440.49 327.25 439.73 C 324.29 436.79 320.22 438.68 316.86 439.72 Z" />
</g>
<g id="#4b9ed3ff">
<path fill="#4b9ed3" opacity="1.00" d=" M 275.12 31.91 C 279.39 32.32 283.67 32.18 287.94 32.24 C 289.80 32.15 291.22 33.50 292.76 34.32 C 295.96 36.50 299.93 36.32 303.62 36.41 C 303.18 35.51 302.74 34.62 302.30 33.72 C 302.82 33.68 303.85 33.60 304.36 33.56 C 305.66 33.46 306.95 33.36 308.26 33.28 C 308.43 34.36 308.61 35.45 308.79 36.54 C 311.55 37.13 314.33 37.66 317.13 38.09 C 315.70 37.20 314.25 36.33 312.81 35.45 C 313.94 35.26 315.08 35.09 316.22 34.96 C 321.82 35.63 326.88 38.47 332.43 39.45 C 344.10 41.74 355.58 44.99 366.65 49.36 C 371.60 51.35 376.85 52.74 381.36 55.68 C 385.84 58.55 390.35 61.39 395.03 63.94 C 398.58 65.87 402.42 67.17 406.02 69.00 C 410.52 71.26 414.10 74.87 417.99 78.01 C 424.04 82.92 430.06 87.91 435.58 93.42 C 438.10 95.97 441.09 97.96 444.02 99.99 C 447.57 102.40 449.86 106.13 452.82 109.16 C 455.29 111.71 457.70 114.30 460.00 117.00 C 462.92 120.41 466.41 123.33 468.92 127.08 C 470.86 129.90 472.18 133.08 474.05 135.95 C 475.98 138.94 478.72 141.28 480.84 144.13 C 482.72 146.65 484.34 149.37 485.81 152.16 C 485.05 155.81 488.67 157.92 490.21 160.76 C 493.84 167.25 494.44 174.87 497.31 181.66 C 499.94 187.94 502.71 194.23 504.09 200.93 C 504.90 205.16 506.56 209.16 507.59 213.33 C 508.23 216.97 508.44 220.67 508.76 224.34 C 510.70 240.83 513.16 257.41 511.82 274.05 C 510.71 287.44 508.92 300.80 505.95 313.91 C 504.80 319.95 503.66 326.00 501.90 331.90 C 499.66 340.16 496.21 348.01 492.84 355.85 C 488.75 365.44 484.27 374.90 478.71 383.74 C 472.25 393.13 464.68 401.69 457.50 410.52 C 454.52 414.18 452.00 418.27 448.44 421.42 C 442.57 426.57 436.88 431.94 430.64 436.64 C 418.82 445.63 407.27 455.17 394.03 462.05 C 388.88 464.78 383.50 467.04 378.11 469.24 C 371.56 471.85 365.58 475.79 358.76 477.74 C 349.22 481.12 339.26 482.96 329.44 485.27 C 322.89 486.74 316.12 486.47 309.52 487.59 C 302.07 488.80 294.58 490.07 287.01 490.03 C 275.02 489.99 262.99 490.26 251.06 488.86 C 244.13 488.31 237.31 486.89 230.41 486.11 C 226.10 483.27 221.13 481.77 216.49 479.58 C 208.67 475.83 199.73 475.20 192.11 470.94 C 186.53 468.38 182.19 463.72 176.39 461.60 C 171.19 459.61 165.98 457.59 161.13 454.83 C 157.35 452.76 153.28 450.82 150.72 447.20 C 151.07 447.26 151.78 447.39 152.14 447.45 C 155.71 449.20 159.34 450.84 163.16 451.98 C 159.53 449.27 155.95 446.48 152.17 443.99 C 151.42 443.80 150.67 443.65 149.91 443.53 C 149.43 441.69 148.94 439.85 148.44 438.03 C 147.87 439.26 147.30 440.51 146.73 441.77 C 145.83 440.19 145.14 438.40 143.74 437.19 C 141.15 435.92 138.22 435.61 135.44 434.96 C 134.96 434.16 134.47 433.37 133.96 432.60 C 132.37 429.47 128.48 429.24 125.92 427.28 C 125.46 425.71 125.33 424.07 125.11 422.47 C 122.73 422.60 120.35 422.82 117.99 423.10 C 120.72 425.43 123.56 427.65 126.19 430.11 C 120.90 427.98 116.43 424.34 111.35 421.85 C 105.94 420.42 100.11 419.78 94.60 421.11 C 89.04 422.25 83.28 422.50 77.63 421.92 C 75.04 421.74 72.75 420.46 70.56 419.17 C 70.33 420.15 70.09 421.13 69.85 422.12 C 67.19 419.30 64.37 416.59 61.07 414.52 C 59.16 418.86 58.95 423.62 58.95 428.29 C 57.86 425.75 57.01 422.97 54.94 421.03 C 53.40 419.28 51.14 417.86 50.63 415.43 C 49.58 410.94 50.99 406.44 51.34 401.97 C 51.62 398.83 49.73 396.12 48.62 393.33 C 47.03 390.15 47.90 386.46 46.90 383.13 C 46.11 380.57 44.84 378.20 43.64 375.83 C 42.36 375.60 41.07 375.43 39.84 375.02 C 38.26 373.30 37.59 370.97 36.60 368.90 C 35.27 371.55 33.83 374.17 32.94 377.01 C 32.27 379.23 32.67 381.59 32.53 383.88 C 32.73 385.30 31.11 385.76 30.21 386.44 C 29.94 381.04 29.46 375.61 30.08 370.22 C 30.34 367.66 30.58 365.10 30.57 362.53 C 31.42 361.52 32.31 360.55 33.02 359.45 C 32.89 357.19 31.74 355.17 31.04 353.07 C 31.09 352.80 31.19 352.24 31.24 351.96 C 33.03 353.14 34.89 354.21 36.75 355.28 C 35.97 349.94 34.22 344.73 30.76 340.52 C 30.57 340.21 30.18 339.59 29.98 339.28 C 30.30 337.60 30.61 335.93 30.92 334.26 C 32.06 334.69 33.20 335.13 34.34 335.56 C 32.81 332.91 31.67 329.83 29.11 327.97 C 27.74 329.15 26.52 330.50 25.29 331.83 C 25.25 329.11 25.15 326.39 25.02 323.68 C 23.95 325.46 22.91 327.25 21.87 329.04 C 22.75 324.62 23.71 320.22 24.38 315.77 C 23.20 316.85 22.04 317.95 20.88 319.07 C 20.98 318.40 21.19 317.06 21.29 316.39 C 21.81 312.87 21.91 309.28 21.35 305.76 C 20.63 301.08 15.04 299.62 13.82 295.27 C 15.02 294.92 16.24 294.66 17.47 294.42 C 14.61 289.90 13.61 284.49 13.99 279.21 C 14.23 276.07 14.57 272.91 14.28 269.76 C 14.03 267.45 13.37 265.20 13.22 262.88 C 13.25 260.33 14.78 257.98 14.48 255.40 C 14.04 252.01 13.21 248.69 12.69 245.31 C 13.62 245.88 14.54 246.46 15.47 247.03 C 16.60 247.71 17.74 248.39 18.88 249.06 C 19.14 247.99 19.38 246.92 19.61 245.85 C 19.92 246.52 20.55 247.86 20.87 248.53 C 20.69 249.75 20.52 250.98 20.35 252.20 C 21.59 252.28 22.84 252.35 24.08 252.43 C 26.47 256.52 27.92 261.20 31.21 264.71 C 31.15 261.28 30.45 257.35 33.38 254.83 C 33.73 255.66 34.44 257.32 34.80 258.15 C 35.37 254.95 35.57 251.68 36.22 248.49 C 37.04 247.74 37.88 247.02 38.75 246.34 C 39.01 243.65 39.27 240.88 38.50 238.25 C 37.83 235.53 36.53 232.87 36.77 230.01 C 37.32 222.68 41.41 216.01 40.87 208.54 C 39.54 207.98 38.21 207.43 36.88 206.87 C 37.56 204.50 38.25 202.14 38.95 199.78 C 39.88 201.51 40.79 203.24 41.72 204.97 C 43.20 202.47 44.24 199.73 44.79 196.88 C 45.95 190.94 49.24 185.75 50.92 179.98 C 52.82 173.59 55.41 167.07 60.23 162.31 C 60.48 162.08 60.98 161.63 61.23 161.40 C 60.24 164.71 59.19 168.20 60.40 171.61 C 66.26 165.08 66.77 155.98 69.18 147.94 C 66.55 152.04 63.85 156.11 61.34 160.29 C 61.14 152.70 67.54 147.38 69.15 140.26 C 68.16 140.47 67.17 140.68 66.19 140.89 C 66.35 138.66 65.79 135.86 67.89 134.34 C 68.94 135.43 69.89 136.61 70.84 137.80 C 72.44 135.52 74.19 133.31 76.33 131.51 C 76.61 131.25 77.18 130.73 77.46 130.47 C 77.33 132.07 77.28 133.68 77.21 135.29 C 80.81 133.33 83.86 130.52 86.18 127.15 C 90.17 121.31 96.11 116.22 96.83 108.75 C 99.20 108.08 101.54 107.09 103.21 105.21 C 108.12 100.15 112.82 94.87 118.08 90.16 C 118.65 89.59 119.22 89.02 119.78 88.44 C 124.06 84.41 128.69 80.75 133.56 77.44 C 136.48 75.46 138.46 72.40 141.43 70.49 C 153.03 64.24 164.39 57.32 176.91 52.99 C 184.67 50.47 192.25 47.45 200.10 45.26 C 201.50 43.49 203.26 41.93 205.70 42.53 C 208.43 42.65 211.16 42.87 213.90 43.05 C 213.64 42.05 213.38 41.05 213.13 40.05 C 217.42 40.42 221.75 40.43 226.03 39.81 C 224.66 39.44 223.30 39.07 221.94 38.70 C 224.85 37.71 227.78 36.75 230.72 35.84 C 234.69 37.64 239.12 38.19 243.28 36.70 C 240.74 36.23 238.20 35.80 235.66 35.33 C 239.19 34.40 242.84 34.55 246.29 35.72 C 248.73 36.61 251.26 35.83 253.66 35.21 C 253.22 34.39 252.79 33.57 252.36 32.75 C 256.53 33.68 260.69 34.94 265.01 34.82 C 269.32 34.71 273.63 34.52 277.95 34.76 C 277.00 33.81 276.06 32.86 275.12 31.91 M 286.14 32.80 C 286.09 33.62 286.00 35.25 285.95 36.07 C 287.55 36.38 289.15 36.68 290.76 36.99 C 290.78 36.26 290.84 34.81 290.86 34.08 C 289.28 33.66 287.71 33.22 286.14 32.80 M 282.38 34.20 C 281.22 35.64 283.70 37.38 284.71 35.87 C 285.87 34.44 283.39 32.70 282.38 34.20 M 153.65 71.23 C 158.29 70.18 162.35 67.64 166.09 64.80 C 161.59 66.14 156.93 67.67 153.65 71.23 M 235.58 91.55 C 226.26 93.72 216.98 96.28 208.25 100.23 C 204.63 101.93 200.64 102.52 196.90 103.86 C 189.15 106.92 181.64 110.81 175.43 116.44 C 168.67 121.11 163.38 127.52 156.63 132.18 C 154.04 133.91 152.99 137.18 150.23 138.68 C 148.98 139.57 147.31 140.13 146.68 141.66 C 145.30 142.76 144.04 144.01 142.94 145.41 C 143.43 145.34 144.42 145.20 144.91 145.13 C 142.70 148.08 138.78 149.31 136.86 152.63 C 137.30 152.73 138.16 152.94 138.59 153.04 C 135.25 154.84 132.77 157.73 130.69 160.85 C 128.99 163.50 127.28 166.16 125.83 168.97 C 125.60 169.41 125.12 170.29 124.89 170.73 C 124.23 171.99 123.57 173.25 122.92 174.52 C 122.32 175.85 121.72 177.18 121.12 178.52 C 120.45 179.80 119.79 181.08 119.13 182.37 C 116.59 188.00 113.99 193.67 112.61 199.72 C 108.80 213.15 105.84 226.88 104.77 240.82 C 104.01 248.23 103.74 255.76 104.77 263.16 C 105.09 267.76 105.56 272.34 105.78 276.95 C 106.06 283.73 108.07 290.26 109.02 296.96 C 110.42 306.57 114.96 315.28 118.82 324.07 C 121.91 330.29 124.16 337.02 128.47 342.55 C 132.11 347.26 136.20 351.68 139.04 356.96 C 141.28 361.09 142.30 365.91 145.51 369.49 C 147.25 371.79 149.86 373.92 149.82 377.07 C 149.92 382.88 149.57 388.76 148.36 394.46 C 147.59 398.55 144.04 401.09 141.08 403.63 C 143.83 405.50 146.40 407.62 148.82 409.90 C 149.77 410.07 150.73 410.25 151.68 410.44 C 154.53 412.59 157.38 415.02 160.90 415.97 C 163.97 417.62 167.05 419.25 170.11 420.91 C 170.60 420.62 171.59 420.03 172.09 419.74 C 173.33 424.27 178.10 426.36 182.43 426.59 C 182.71 426.78 183.26 427.17 183.53 427.36 C 185.66 428.58 187.79 429.81 189.93 431.03 C 190.73 430.20 191.53 429.38 192.33 428.56 C 195.01 430.13 197.94 431.21 200.87 432.21 C 210.54 435.88 220.52 438.68 230.13 442.49 C 228.27 442.75 226.40 443.01 224.54 443.30 C 226.04 444.62 227.52 446.20 229.62 446.45 C 236.54 447.90 243.67 448.32 250.41 450.58 C 252.09 451.28 253.77 450.38 255.40 449.95 C 256.64 452.62 259.92 451.93 262.31 452.11 C 261.79 450.84 261.27 449.56 260.57 448.38 C 258.73 446.44 255.82 446.83 253.40 446.88 C 249.09 446.58 244.90 445.43 240.61 444.95 C 241.86 444.57 243.09 444.16 244.32 443.72 C 249.12 444.53 253.98 445.02 258.85 445.21 C 264.55 445.98 270.32 445.73 276.06 445.69 C 279.11 445.67 282.12 445.13 285.08 444.43 C 288.52 444.20 291.98 444.26 295.42 444.54 C 300.63 445.02 305.78 443.78 310.99 443.81 C 316.88 443.71 323.13 444.23 328.57 441.50 C 332.07 439.76 335.72 438.35 339.48 437.28 C 343.65 436.87 347.62 435.40 351.15 433.17 C 348.82 433.41 346.48 433.68 344.24 434.41 C 343.83 433.28 343.42 432.16 343.01 431.04 C 345.63 431.14 348.28 431.43 350.89 431.05 C 353.17 430.32 355.02 428.68 357.26 427.87 C 358.98 427.34 360.80 427.25 362.58 427.00 C 366.92 425.11 371.04 422.69 374.85 419.87 C 378.87 416.90 381.87 412.86 385.27 409.25 C 388.36 405.94 391.92 403.11 395.04 399.83 C 398.65 398.55 401.39 395.68 404.09 393.08 C 406.38 390.90 408.20 388.29 409.65 385.49 C 411.55 381.78 415.29 379.27 416.50 375.18 C 417.77 371.32 420.06 367.94 422.30 364.59 C 427.36 357.53 431.52 349.86 435.00 341.92 C 437.77 335.90 438.52 329.22 441.10 323.13 C 445.91 311.09 447.05 298.09 449.40 285.45 C 450.76 277.01 451.90 268.16 449.53 259.80 C 449.16 257.69 450.66 255.86 451.34 253.97 C 450.96 251.91 450.52 249.86 450.05 247.83 L 449.94 248.54 C 449.87 245.59 449.27 242.69 448.97 239.76 C 449.33 235.58 449.78 231.34 448.95 227.19 C 448.82 225.68 447.85 224.51 446.72 223.62 L 447.35 223.43 C 446.75 220.51 446.21 217.58 445.69 214.65 C 445.25 214.64 444.37 214.63 443.93 214.62 C 441.87 205.16 441.03 195.31 437.18 186.33 C 436.38 188.84 435.30 191.37 435.45 194.05 C 434.22 188.44 431.68 183.23 428.77 178.31 C 427.87 176.87 426.92 175.42 425.63 174.30 C 424.29 171.57 422.48 168.98 421.88 165.96 C 422.10 162.29 423.49 158.84 424.22 155.27 C 426.05 146.65 427.67 137.85 426.83 129.00 L 425.80 129.01 C 427.17 128.61 428.33 127.52 427.87 125.99 C 427.16 116.70 426.94 106.63 421.23 98.79 C 417.87 94.10 411.52 93.37 406.22 94.19 C 397.47 95.53 389.13 98.90 381.25 102.85 C 376.41 105.60 371.76 108.67 366.86 111.32 C 365.92 110.98 364.98 110.63 364.04 110.29 C 359.41 106.98 354.54 103.98 349.41 101.50 C 345.42 99.55 341.06 98.60 336.94 97.01 C 334.30 96.03 331.72 94.86 329.02 94.06 C 325.45 92.99 321.67 92.94 318.09 91.94 C 316.60 91.70 315.84 90.30 314.84 89.35 C 313.21 89.20 311.58 89.12 309.96 89.01 C 310.99 89.70 312.02 90.38 313.06 91.06 C 306.98 89.92 301.10 87.74 294.90 87.30 C 286.97 86.78 279.05 85.73 271.09 86.26 C 259.14 87.06 247.16 88.40 235.58 91.55 M 126.86 92.01 C 129.21 91.47 130.87 89.79 132.11 87.82 C 129.88 88.56 127.86 89.80 126.86 92.01 M 116.82 101.83 C 120.67 99.13 124.16 95.89 126.86 92.01 C 122.60 94.21 119.25 97.74 116.82 101.83 M 65.37 169.38 C 68.17 166.52 69.84 162.81 70.16 158.82 C 67.52 161.78 66.08 165.52 65.37 169.38 M 49.17 198.44 C 47.76 198.92 47.24 201.14 48.20 202.25 C 50.03 202.84 51.04 198.84 49.17 198.44 M 43.30 220.45 C 42.31 229.07 40.15 237.57 40.12 246.29 C 40.95 245.03 41.94 243.83 42.43 242.39 C 44.60 231.85 45.83 221.15 46.49 210.42 C 43.49 212.88 43.83 216.98 43.30 220.45 M 32.31 269.18 C 32.86 273.10 33.74 277.05 35.87 280.46 C 36.72 278.14 37.97 275.77 37.61 273.22 C 37.31 271.07 36.53 269.04 35.86 266.99 C 34.68 267.71 33.50 268.45 32.31 269.18 M 449.10 335.18 C 451.60 331.09 452.98 326.45 453.67 321.74 C 450.11 325.28 449.42 330.41 449.10 335.18 M 444.08 346.39 C 446.25 343.45 447.89 340.13 448.63 336.53 C 445.95 339.17 444.81 342.80 444.08 346.39 M 432.83 358.74 C 431.00 362.89 428.85 366.89 427.03 371.05 C 430.51 366.75 433.10 361.83 436.33 357.36 C 436.34 358.72 436.36 360.09 436.38 361.46 C 437.19 360.28 438.08 359.15 438.78 357.90 C 438.40 357.04 438.05 356.17 437.73 355.29 C 437.61 354.13 437.52 352.98 437.43 351.83 C 435.58 353.90 433.92 356.16 432.83 358.74 M 130.22 409.81 C 133.27 412.53 136.68 414.83 140.37 416.61 C 142.67 417.66 144.67 419.23 146.23 421.22 C 148.48 424.28 152.01 425.84 155.59 426.74 C 155.46 426.27 155.22 425.33 155.09 424.85 C 165.60 431.61 176.28 438.20 187.69 443.32 C 192.62 445.61 197.94 446.86 202.86 449.15 C 204.53 449.87 206.17 450.72 207.97 451.11 C 213.13 452.44 218.48 452.86 223.62 454.27 C 232.73 456.66 242.05 457.99 251.28 459.79 C 260.10 461.49 269.12 460.93 278.04 461.06 C 281.83 461.15 285.62 460.64 289.18 459.31 C 280.10 457.50 270.81 457.28 261.62 456.34 C 257.46 455.98 253.03 455.12 249.16 457.21 C 237.04 452.88 223.69 452.66 211.97 447.06 C 204.98 444.34 198.13 441.23 190.96 439.03 C 186.32 436.17 181.15 434.30 176.46 431.51 C 169.80 427.96 163.62 423.60 157.05 419.90 C 152.51 417.35 148.54 413.57 143.34 412.37 C 142.51 410.98 141.95 409.33 140.69 408.26 C 139.15 407.69 137.50 407.47 135.89 407.18 C 133.72 407.19 132.02 408.81 130.22 409.81 M 407.90 412.26 C 410.73 411.42 412.59 409.15 413.91 406.63 C 411.13 407.56 408.86 409.42 407.90 412.26 M 399.26 421.19 C 398.29 421.44 397.00 422.60 397.66 423.69 C 399.33 425.14 402.14 420.88 399.26 421.19 M 386.88 433.98 C 390.80 432.00 395.22 429.70 396.33 425.05 C 392.21 426.82 389.13 430.18 386.88 433.98 M 332.82 447.47 C 334.66 447.92 336.51 448.58 338.43 448.54 C 339.11 447.75 339.75 446.92 340.34 446.05 C 337.75 446.05 335.20 446.47 332.82 447.47 M 295.18 447.04 C 293.22 447.34 293.78 450.56 295.77 449.91 C 297.73 449.60 297.17 446.39 295.18 447.04 M 321.89 449.57 C 325.00 450.34 328.18 450.83 331.39 450.91 C 330.82 449.96 330.17 449.07 329.46 448.24 C 326.86 447.74 324.33 448.87 321.89 449.57 M 264.96 449.87 C 265.44 450.82 265.93 451.77 266.42 452.72 C 270.50 453.26 274.44 454.51 278.50 455.15 C 281.77 455.07 284.99 454.10 288.29 454.41 C 288.95 453.93 289.61 453.44 290.26 452.93 C 290.70 452.57 291.59 451.84 292.04 451.47 C 289.50 450.73 286.95 450.05 284.38 449.50 C 280.12 452.25 274.92 451.20 270.15 451.75 C 270.74 450.77 271.32 449.80 271.91 448.83 C 269.58 449.15 267.27 449.50 264.96 449.87 M 290.26 452.93 C 294.59 454.93 299.28 452.84 303.81 453.33 C 309.44 453.75 315.66 453.91 320.40 450.33 C 315.86 450.07 311.33 450.63 306.79 450.31 C 301.12 449.88 295.86 452.55 290.26 452.93 Z" />
</g>
<g id="#95c7e8ff">
<path fill="#95c7e8" opacity="1.00" d=" M 294.28 32.14 C 297.64 32.57 301.01 33.03 304.36 33.56 C 303.85 33.60 302.82 33.68 302.30 33.72 C 302.74 34.62 303.18 35.51 303.62 36.41 C 299.93 36.32 295.96 36.50 292.76 34.32 C 293.78 34.60 294.81 34.87 295.85 35.15 C 295.32 34.15 294.80 33.14 294.28 32.14 Z" />
<path fill="#95c7e8" opacity="1.00" d=" M 163.19 413.78 C 166.25 415.61 169.18 417.66 172.09 419.74 C 171.59 420.03 170.60 420.62 170.11 420.91 C 167.05 419.25 163.97 417.62 160.90 415.97 C 161.20 415.94 161.80 415.89 162.10 415.86 C 162.37 415.34 162.92 414.30 163.19 413.78 Z" />
</g>
<g id="#c0ddf0ff">
<path fill="#c0ddf0" opacity="1.00" d=" M 286.14 32.80 C 287.71 33.22 289.28 33.66 290.86 34.08 C 290.84 34.81 290.78 36.26 290.76 36.99 C 289.15 36.68 287.55 36.38 285.95 36.07 C 286.00 35.25 286.09 33.62 286.14 32.80 Z" />
</g>
<g id="#b6d8eeff">
<path fill="#b6d8ee" opacity="1.00" d=" M 282.38 34.20 C 283.39 32.70 285.87 34.44 284.71 35.87 C 283.70 37.38 281.22 35.64 282.38 34.20 Z" />
</g>
<g id="#a3ceebff">
<path fill="#a3ceeb" opacity="1.00" d=" M 310.16 33.80 C 312.18 34.16 314.21 34.54 316.22 34.96 C 315.08 35.09 313.94 35.26 312.81 35.45 C 312.13 35.58 310.76 35.84 310.07 35.96 C 310.09 35.42 310.14 34.34 310.16 33.80 Z" />
</g>
<g id="#b8d9efff">
<path fill="#b8d9ef" opacity="1.00" d=" M 208.98 39.85 C 210.36 39.91 211.74 39.98 213.13 40.05 C 213.38 41.05 213.64 42.05 213.90 43.05 C 211.16 42.87 208.43 42.65 205.70 42.53 C 207.47 42.44 209.24 42.34 211.01 42.25 C 210.33 41.45 209.65 40.65 208.98 39.85 Z" />
</g>
<g id="#b9daefff">
<path fill="#b9daef" opacity="1.00" d=" M 153.65 71.23 C 156.93 67.67 161.59 66.14 166.09 64.80 C 162.35 67.64 158.29 70.18 153.65 71.23 Z" />
</g>
<g id="#a7d0eaff">
<path fill="#a7d0ea" opacity="1.00" d=" M 117.05 87.19 C 118.36 86.31 119.67 85.44 120.99 84.59 C 120.61 85.88 120.29 87.19 119.78 88.44 C 119.22 89.02 118.65 89.59 118.08 90.16 C 117.74 89.17 117.40 88.18 117.05 87.19 Z" />
<path fill="#a7d0ea" opacity="1.00" d=" M 142.94 145.41 C 144.04 144.01 145.30 142.76 146.68 141.66 C 146.10 142.82 145.58 144.01 144.91 145.13 C 144.42 145.20 143.43 145.34 142.94 145.41 Z" />
</g>
<g id="#b2d7eeff">
<path fill="#b2d7ee" opacity="1.00" d=" M 126.86 92.01 C 127.86 89.80 129.88 88.56 132.11 87.82 C 130.87 89.79 129.21 91.47 126.86 92.01 Z" />
</g>
<g id="#5eaadcff">
<path fill="#5eaadc" opacity="1.00" d=" M 97.53 100.49 C 101.21 97.02 106.12 95.21 110.08 92.07 C 109.07 94.56 108.00 97.12 105.98 98.97 C 102.74 102.05 99.69 105.32 96.83 108.75 C 90.07 115.72 84.20 123.48 77.46 130.47 C 77.18 130.73 76.61 131.25 76.33 131.51 C 76.97 129.82 77.63 128.13 78.61 126.61 C 84.52 117.63 90.94 108.98 97.53 100.49 Z" />
</g>
<g id="#b6d8efff">
<path fill="#b6d8ef" opacity="1.00" d=" M 116.82 101.83 C 119.25 97.74 122.60 94.21 126.86 92.01 C 124.16 95.89 120.67 99.13 116.82 101.83 Z" />
<path fill="#b6d8ef" opacity="1.00" d=" M 295.18 447.04 C 297.17 446.39 297.73 449.60 295.77 449.91 C 293.78 450.56 293.22 447.34 295.18 447.04 Z" />
</g>
<g id="#c94e3cff">
<path fill="#c94e3c" opacity="1.00" d=" M 381.25 102.85 C 389.13 98.90 397.47 95.53 406.22 94.19 C 411.52 93.37 417.87 94.10 421.23 98.79 C 426.94 106.63 427.16 116.70 427.87 125.99 C 428.33 127.52 427.17 128.61 425.80 129.01 C 407.70 129.58 389.28 119.26 381.25 102.85 Z" />
</g>
<g id="#6ab2e0ff">
<path fill="#6ab2e0" opacity="1.00" d=" M 91.17 101.12 C 92.71 99.45 94.93 98.73 96.97 97.87 C 93.18 103.21 88.75 108.14 83.69 112.30 C 84.79 107.79 88.16 104.46 91.17 101.12 Z" />
</g>
<g id="#bcbcbcff">
<path fill="#bcbcbc" opacity="1.00" d=" M 366.86 111.32 C 371.76 108.67 376.41 105.60 381.25 102.85 C 389.28 119.26 407.70 129.58 425.80 129.01 L 426.83 129.00 C 427.67 137.85 426.05 146.65 424.22 155.27 C 423.49 158.84 422.10 162.29 421.88 165.96 C 422.48 168.98 424.29 171.57 425.63 174.30 C 423.89 172.88 422.05 171.60 420.22 170.30 C 417.39 178.18 414.62 186.14 410.51 193.47 C 399.77 212.90 385.66 230.33 369.77 245.77 C 359.84 256.19 348.16 264.67 337.41 274.18 C 332.56 277.68 327.54 281.00 323.34 285.29 C 316.10 292.39 308.28 298.88 301.45 306.40 C 300.07 307.40 298.62 308.32 297.17 309.24 C 292.08 306.27 286.88 303.49 281.72 300.64 C 289.87 288.89 298.40 277.39 306.86 265.87 C 308.88 263.27 309.08 259.92 309.36 256.78 C 307.50 256.72 305.61 256.53 303.77 256.86 C 301.51 257.75 300.20 259.99 298.83 261.86 C 291.33 273.72 283.91 285.64 276.13 297.33 C 271.62 294.92 267.04 292.63 262.25 290.82 C 263.40 288.27 264.21 285.60 265.04 282.93 C 269.50 268.65 275.16 254.76 278.77 240.22 C 280.36 235.75 282.36 231.44 284.06 227.01 C 288.75 215.49 292.83 203.69 298.64 192.65 C 304.11 181.22 310.78 170.41 318.07 160.06 C 324.14 150.99 330.96 142.40 338.70 134.71 C 346.63 126.60 355.59 119.62 364.60 112.78 C 364.41 111.95 364.23 111.12 364.04 110.29 C 364.98 110.63 365.92 110.98 366.86 111.32 M 366.34 135.36 C 356.91 136.57 347.80 141.39 342.26 149.23 C 336.44 157.04 334.81 167.73 338.09 176.91 C 341.81 187.80 351.93 195.75 363.06 198.02 C 374.60 200.77 387.36 197.10 395.76 188.75 C 400.84 183.77 404.04 176.95 404.80 169.89 C 405.75 160.62 401.97 151.13 395.26 144.74 C 387.72 137.43 376.73 133.89 366.34 135.36 Z" />
</g>
<g id="#eff6fbff">
<path fill="#eff6fb" opacity="1.00" d=" M 77.46 130.47 C 84.20 123.48 90.07 115.72 96.83 108.75 C 96.11 116.22 90.17 121.31 86.18 127.15 C 83.86 130.52 80.81 133.33 77.21 135.29 C 77.28 133.68 77.33 132.07 77.46 130.47 Z" />
</g>
<g id="#c64f3fff">
<path fill="#c64f3f" opacity="1.00" d=" M 366.34 135.36 C 376.73 133.89 387.72 137.43 395.26 144.74 C 401.97 151.13 405.75 160.62 404.80 169.89 C 404.04 176.95 400.84 183.77 395.76 188.75 C 387.36 197.10 374.60 200.77 363.06 198.02 C 351.93 195.75 341.81 187.80 338.09 176.91 C 334.81 167.73 336.44 157.04 342.26 149.23 C 347.80 141.39 356.91 136.57 366.34 135.36 M 368.44 140.46 C 358.43 141.18 348.59 147.07 344.45 156.42 C 340.20 165.19 341.86 176.37 348.43 183.56 C 354.88 191.06 365.28 194.69 375.02 193.27 C 384.22 192.08 392.79 186.15 396.80 177.73 C 400.59 169.95 399.86 160.19 395.01 153.02 C 389.38 144.30 378.68 139.59 368.44 140.46 Z" />
</g>
<g id="#394461ff">
<path fill="#394461" opacity="1.00" d=" M 368.44 140.46 C 378.68 139.59 389.38 144.30 395.01 153.02 C 399.86 160.19 400.59 169.95 396.80 177.73 C 392.79 186.15 384.22 192.08 375.02 193.27 C 365.28 194.69 354.88 191.06 348.43 183.56 C 341.86 176.37 340.20 165.19 344.45 156.42 C 348.59 147.07 358.43 141.18 368.44 140.46 M 355.16 148.18 C 351.10 151.63 347.54 156.05 346.44 161.37 C 345.12 167.73 345.88 174.85 349.86 180.17 C 353.32 184.79 357.96 188.91 363.70 190.30 C 370.98 192.07 379.36 191.17 385.29 186.27 C 388.98 183.24 392.32 179.49 393.91 174.91 C 396.30 167.79 395.28 159.66 391.02 153.45 C 390.06 154.42 389.08 155.39 388.24 156.47 C 388.19 160.36 390.05 164.03 389.89 167.94 C 389.43 176.23 383.87 184.31 375.83 186.88 C 369.94 188.98 363.13 187.56 358.28 183.73 C 353.49 179.93 350.47 174.03 350.11 167.94 C 349.72 158.72 355.91 149.35 364.95 146.87 C 369.24 145.43 373.77 146.56 377.99 147.67 C 378.73 146.76 379.47 145.84 380.22 144.93 C 372.14 141.37 361.93 142.31 355.16 148.18 M 376.69 154.70 C 373.90 158.43 370.99 162.07 368.46 165.98 C 369.89 167.38 371.33 168.78 372.78 170.16 C 376.40 165.60 379.61 160.74 383.11 156.09 C 384.47 154.20 385.91 152.32 386.72 150.12 C 386.04 148.61 384.93 147.05 383.16 146.85 C 380.54 149.05 378.73 151.99 376.69 154.70 Z" />
</g>
<g id="#4c5c82ff">
<path fill="#4c5c82" opacity="1.00" d=" M 355.16 148.18 C 361.93 142.31 372.14 141.37 380.22 144.93 C 379.47 145.84 378.73 146.76 377.99 147.67 C 373.77 146.56 369.24 145.43 364.95 146.87 C 355.91 149.35 349.72 158.72 350.11 167.94 C 350.47 174.03 353.49 179.93 358.28 183.73 C 363.13 187.56 369.94 188.98 375.83 186.88 C 383.87 184.31 389.43 176.23 389.89 167.94 C 390.05 164.03 388.19 160.36 388.24 156.47 C 389.08 155.39 390.06 154.42 391.02 153.45 C 395.28 159.66 396.30 167.79 393.91 174.91 C 392.32 179.49 388.98 183.24 385.29 186.27 C 379.36 191.17 370.98 192.07 363.70 190.30 C 357.96 188.91 353.32 184.79 349.86 180.17 C 345.88 174.85 345.12 167.73 346.44 161.37 C 347.54 156.05 351.10 151.63 355.16 148.18 Z" />
</g>
<g id="#4d5c83ff">
<path fill="#4d5c83" opacity="1.00" d=" M 376.69 154.70 C 378.73 151.99 380.54 149.05 383.16 146.85 C 384.93 147.05 386.04 148.61 386.72 150.12 C 385.91 152.32 384.47 154.20 383.11 156.09 C 379.61 160.74 376.40 165.60 372.78 170.16 C 371.33 168.78 369.89 167.38 368.46 165.98 C 370.99 162.07 373.90 158.43 376.69 154.70 Z" />
</g>
<g id="#d2e7f4ff">
<path fill="#d2e7f4" opacity="1.00" d=" M 61.34 160.29 C 63.85 156.11 66.55 152.04 69.18 147.94 C 66.77 155.98 66.26 165.08 60.40 171.61 C 59.19 168.20 60.24 164.71 61.23 161.40 C 60.98 161.63 60.48 162.08 60.23 162.31 C 60.51 161.81 61.06 160.79 61.34 160.29 Z" />
</g>
<g id="#cbe3f2ff">
<path fill="#cbe3f2" opacity="1.00" d=" M 65.37 169.38 C 66.08 165.52 67.52 161.78 70.16 158.82 C 69.84 162.81 68.17 166.52 65.37 169.38 Z" />
</g>
<g id="#add3ebff">
<path fill="#add3eb" opacity="1.00" d=" M 125.83 168.97 C 127.28 166.16 128.99 163.50 130.69 160.85 C 131.59 161.15 132.48 161.46 133.38 161.77 C 132.58 163.31 131.90 164.95 130.80 166.31 C 129.42 167.62 127.52 168.18 125.83 168.97 Z" />
</g>
<g id="#71b5e1ff">
<path fill="#71b5e1" opacity="1.00" d=" M 49.19 168.46 C 50.16 167.80 51.16 167.20 52.19 166.64 C 52.15 170.25 51.35 173.97 48.32 176.27 C 48.37 173.68 47.90 170.83 49.19 168.46 Z" />
</g>
<g id="#97c7e7ff">
<path fill="#97c7e7" opacity="1.00" d=" M 122.92 174.52 C 123.57 173.25 124.23 171.99 124.89 170.73 C 125.91 171.94 126.94 173.15 127.97 174.36 C 126.29 174.42 124.60 174.47 122.92 174.52 Z" />
</g>
<g id="#98c8e7ff">
<path fill="#98c8e7" opacity="1.00" d=" M 119.13 182.37 C 119.79 181.08 120.45 179.80 121.12 178.52 C 121.83 179.28 122.54 180.04 123.25 180.80 C 121.88 181.32 120.50 181.84 119.13 182.37 Z" />
</g>
<g id="#b3d8f1ff">
<path fill="#b3d8f1" opacity="1.00" d=" M 437.18 186.33 C 441.03 195.31 441.87 205.16 443.93 214.62 C 444.37 214.63 445.25 214.64 445.69 214.65 C 446.21 217.58 446.75 220.51 447.35 223.43 C 446.39 222.79 445.44 222.15 444.50 221.50 C 444.87 217.12 442.25 213.56 440.16 210.00 C 439.59 206.06 438.60 202.19 436.64 198.70 C 436.20 197.16 435.79 195.61 435.45 194.05 C 435.30 191.37 436.38 188.84 437.18 186.33 Z" />
</g>
<g id="#5eabdcff">
<path fill="#5eabdc" opacity="1.00" d=" M 39.84 197.22 C 40.45 194.08 40.95 190.58 43.83 188.63 C 43.93 190.60 44.20 192.61 43.83 194.57 C 42.59 195.58 41.20 196.39 39.84 197.22 Z" />
</g>
<g id="#b5d7edff">
<path fill="#b5d7ed" opacity="1.00" d=" M 49.17 198.44 C 51.04 198.84 50.03 202.84 48.20 202.25 C 47.24 201.14 47.76 198.92 49.17 198.44 Z" />
</g>
<g id="#6db3e1ff">
<path fill="#6db3e1" opacity="1.00" d=" M 440.16 210.00 C 438.08 206.56 437.31 202.60 436.64 198.70 C 438.60 202.19 439.59 206.06 440.16 210.00 Z" />
</g>
<g id="#e0eef8ff">
<path fill="#e0eef8" opacity="1.00" d=" M 43.30 220.45 C 43.83 216.98 43.49 212.88 46.49 210.42 C 45.83 221.15 44.60 231.85 42.43 242.39 C 41.94 243.83 40.95 245.03 40.12 246.29 C 40.15 237.57 42.31 229.07 43.30 220.45 Z" />
</g>
<g id="#a7cfe9ff">
<path fill="#a7cfe9" opacity="1.00" d=" M 507.59 213.33 L 508.76 213.22 C 508.72 216.92 508.70 220.63 508.76 224.34 C 508.44 220.67 508.23 216.97 507.59 213.33 Z" />
</g>
<g id="#66aeddff">
<path fill="#66aedd" opacity="1.00" d=" M 20.15 215.77 C 22.08 218.23 23.17 221.18 23.22 224.31 C 22.28 223.39 20.84 222.81 20.38 221.50 C 19.99 219.61 20.14 217.68 20.15 215.77 Z" />
</g>
<g id="#56a5daff">
<path fill="#56a5da" opacity="1.00" d=" M 444.07 224.45 C 444.55 224.30 445.51 223.99 445.99 223.84 C 445.77 225.91 445.38 227.99 444.73 229.97 C 444.30 228.16 444.10 226.30 444.07 224.45 Z" />
</g>
<g id="#b4d8f1ff">
<path fill="#b4d8f1" opacity="1.00" d=" M 445.99 223.84 L 446.72 223.62 C 447.85 224.51 448.82 225.68 448.95 227.19 C 449.78 231.34 449.33 235.58 448.97 239.76 C 448.52 240.06 447.60 240.67 447.14 240.97 C 446.64 239.57 446.06 238.20 445.58 236.79 C 446.12 235.71 446.80 234.71 447.37 233.65 C 446.32 233.70 445.28 233.73 444.24 233.77 C 444.56 233.04 444.89 232.31 445.22 231.58 C 445.10 231.18 444.85 230.37 444.73 229.97 C 445.38 227.99 445.77 225.91 445.99 223.84 Z" />
</g>
<g id="#5daadcff">
<path fill="#5daadc" opacity="1.00" d=" M 31.83 236.28 C 31.59 232.20 32.30 228.05 34.84 224.75 C 35.44 227.23 36.32 229.85 35.55 232.41 C 35.26 234.39 33.25 235.21 31.83 236.28 Z" />
</g>
<g id="#c94f3dff">
<path fill="#c94f3d" opacity="1.00" d=" M 239.58 237.60 C 247.21 231.71 257.81 230.10 266.92 233.15 C 271.34 234.62 275.06 237.51 278.77 240.22 C 275.16 254.76 269.50 268.65 265.04 282.93 C 263.41 282.55 261.78 282.15 260.13 281.87 C 256.72 281.19 253.20 281.07 249.77 281.73 C 243.65 282.94 238.07 286.30 233.62 290.62 C 230.09 293.95 229.39 299.07 226.49 302.83 C 223.65 304.09 219.09 303.05 218.52 299.58 C 217.81 295.78 218.10 291.89 218.09 288.05 C 219.37 286.25 219.61 284.00 218.85 281.94 C 220.29 271.87 223.29 262.01 228.12 253.04 C 231.18 247.41 234.40 241.56 239.58 237.60 Z" />
<path fill="#c94f3d" opacity="1.00" d=" M 323.34 285.29 C 327.54 281.00 332.56 277.68 337.41 274.18 C 341.52 276.72 345.83 279.24 348.85 283.12 C 353.56 289.03 355.08 297.15 353.35 304.45 C 352.41 308.33 350.32 311.79 348.00 315.00 C 339.02 327.37 326.94 337.40 313.32 344.29 C 309.36 346.23 305.40 348.50 300.97 349.06 C 297.96 349.39 294.78 346.43 295.47 343.36 C 297.59 339.94 301.23 337.76 303.19 334.22 C 304.73 331.44 305.74 328.37 306.29 325.24 C 306.77 322.43 306.81 319.55 306.31 316.74 C 305.53 312.96 303.39 309.67 301.45 306.40 C 308.28 298.88 316.10 292.39 323.34 285.29 Z" />
</g>
<g id="#80bbe2ff">
<path fill="#80bbe2" opacity="1.00" d=" M 17.10 233.66 C 18.64 237.52 19.73 241.66 19.61 245.85 C 19.38 246.92 19.14 247.99 18.88 249.06 C 17.74 248.39 16.60 247.71 15.47 247.03 C 16.31 246.08 17.14 245.12 17.97 244.16 C 17.29 243.21 16.60 242.27 15.92 241.32 C 16.36 241.40 17.25 241.55 17.70 241.62 C 17.39 238.98 17.18 236.32 17.10 233.66 Z" />
</g>
<g id="#76b9e6ff">
<path fill="#76b9e6" opacity="1.00" d=" M 445.58 236.79 C 446.06 238.20 446.64 239.57 447.14 240.97 C 448.03 244.88 447.57 248.97 445.75 252.55 C 444.90 247.35 444.56 241.99 445.58 236.79 Z" />
</g>
<g id="#aad1eaff">
<path fill="#aad1ea" opacity="1.00" d=" M 104.77 263.16 C 103.74 255.76 104.01 248.23 104.77 240.82 C 104.62 248.26 104.58 255.71 104.77 263.16 Z" />
</g>
<g id="#b2d5edff">
<path fill="#b2d5ed" opacity="1.00" d=" M 21.70 245.39 C 22.98 247.55 23.70 249.96 24.08 252.43 C 22.84 252.35 21.59 252.28 20.35 252.20 C 20.52 250.98 20.69 249.75 20.87 248.53 C 21.10 247.47 21.38 246.42 21.70 245.39 Z" />
</g>
<g id="#a5d0ecff">
<path fill="#a5d0ec" opacity="1.00" d=" M 449.94 248.54 L 450.05 247.83 C 450.52 249.86 450.96 251.91 451.34 253.97 C 450.69 254.20 449.37 254.65 448.72 254.88 C 449.15 252.77 449.60 250.67 449.94 248.54 Z" />
<path fill="#a5d0ec" opacity="1.00" d=" M 146.23 421.22 C 149.35 421.97 152.48 422.93 155.09 424.85 C 155.22 425.33 155.46 426.27 155.59 426.74 C 152.01 425.84 148.48 424.28 146.23 421.22 Z" />
</g>
<g id="#80bde7ff">
<path fill="#80bde7" opacity="1.00" d=" M 446.26 252.68 C 446.99 254.05 448.17 255.32 447.99 257.00 C 447.90 261.93 447.75 267.02 445.85 271.65 C 445.23 265.36 444.89 258.90 446.26 252.68 Z" />
</g>
<g id="#cc513eff">
<path fill="#cc513e" opacity="1.00" d=" M 303.77 256.86 C 305.61 256.53 307.50 256.72 309.36 256.78 C 309.08 259.92 308.88 263.27 306.86 265.87 C 298.40 277.39 289.87 288.89 281.72 300.64 C 278.20 305.49 274.77 310.40 271.24 315.23 C 269.69 317.52 267.16 318.74 264.73 319.86 C 264.76 317.31 264.87 314.61 266.38 312.43 C 269.54 307.34 272.89 302.37 276.13 297.33 C 283.91 285.64 291.33 273.72 298.83 261.86 C 300.20 259.99 301.51 257.75 303.77 256.86 Z" />
</g>
<g id="#8dc3e6ff">
<path fill="#8dc3e6" opacity="1.00" d=" M 2.87 261.38 C 4.25 261.40 5.62 261.42 7.00 261.44 C 6.99 261.89 6.96 262.80 6.95 263.25 C 5.68 263.74 4.43 264.23 3.16 264.72 C 3.07 263.61 2.97 262.49 2.87 261.38 Z" />
</g>
<g id="#e7f2f9ff">
<path fill="#e7f2f9" opacity="1.00" d=" M 32.31 269.18 C 33.50 268.45 34.68 267.71 35.86 266.99 C 36.53 269.04 37.31 271.07 37.61 273.22 C 37.97 275.77 36.72 278.14 35.87 280.46 C 33.74 277.05 32.86 273.10 32.31 269.18 Z" />
</g>
<g id="#9dcae7ff">
<path fill="#9dcae7" opacity="1.00" d=" M 14.28 269.76 C 14.57 272.91 14.23 276.07 13.99 279.21 C 13.04 276.09 13.64 272.87 14.28 269.76 Z" />
</g>
<g id="#c39092ff">
<path fill="#c39092" opacity="1.00" d=" M 249.77 281.73 C 253.20 281.07 256.72 281.19 260.13 281.87 C 256.69 281.59 253.22 281.55 249.77 281.73 Z" />
</g>
<g id="#73b6e2ff">
<path fill="#73b6e2" opacity="1.00" d=" M 8.04 281.66 C 9.19 282.61 11.03 282.99 11.42 284.63 C 12.16 286.06 11.19 288.61 9.28 287.81 C 8.53 285.84 8.31 283.73 8.04 281.66 Z" />
</g>
<g id="#c59b9eff">
<path fill="#c59b9e" opacity="1.00" d=" M 218.09 288.05 C 217.39 285.98 217.64 283.76 218.85 281.94 C 219.61 284.00 219.37 286.25 218.09 288.05 Z" />
</g>
<g id="#f4c942ff">
<path fill="#f4c942" opacity="1.00" d=" M 262.25 290.82 C 267.04 292.63 271.62 294.92 276.13 297.33 C 272.89 302.37 269.54 307.34 266.38 312.43 C 264.87 314.61 264.76 317.31 264.73 319.86 C 267.16 318.74 269.69 317.52 271.24 315.23 C 274.77 310.40 278.20 305.49 281.72 300.64 C 286.88 303.49 292.08 306.27 297.17 309.24 C 296.43 310.42 295.70 311.61 294.97 312.81 C 291.89 313.07 288.38 312.75 285.86 314.89 C 282.57 317.52 280.00 320.91 276.83 323.67 C 272.85 326.87 268.44 329.50 263.88 331.78 C 262.02 332.22 260.17 332.65 258.32 333.08 C 257.15 331.44 255.98 329.80 254.79 328.18 C 254.89 324.81 254.95 321.43 255.35 318.08 C 256.77 313.23 258.95 308.66 260.89 304.00 C 259.13 302.62 257.37 301.23 255.61 299.85 C 257.86 296.87 260.26 293.99 262.25 290.82 Z" />
</g>
<g id="#84c0e8ff">
<path fill="#84c0e8" opacity="1.00" d=" M 440.73 302.65 C 442.14 300.39 443.75 298.26 445.64 296.37 C 444.86 298.96 443.97 301.52 443.05 304.06 C 442.47 303.71 441.31 303.00 440.73 302.65 Z" />
</g>
<g id="#f8dd76ff">
<path fill="#f8dd76" opacity="1.00" d=" M 247.73 312.77 C 249.94 308.22 252.54 303.87 255.61 299.85 C 257.37 301.23 259.13 302.62 260.89 304.00 C 258.95 308.66 256.77 313.23 255.35 318.08 C 252.83 316.27 250.29 314.50 247.73 312.77 Z" />
<path fill="#f8dd76" opacity="1.00" d=" M 285.86 314.89 C 288.38 312.75 291.89 313.07 294.97 312.81 C 292.21 317.62 288.85 322.04 285.07 326.09 C 282.32 325.28 279.58 324.48 276.83 323.67 C 280.00 320.91 282.57 317.52 285.86 314.89 Z" />
</g>
<g id="#a7cfebff">
<path fill="#a7cfeb" opacity="1.00" d=" M 21.35 305.76 C 21.91 309.28 21.81 312.87 21.29 316.39 C 21.29 312.84 21.29 309.30 21.35 305.76 Z" />
</g>
<g id="#7dbce6ff">
<path fill="#7dbce6" opacity="1.00" d=" M 439.51 310.66 C 440.34 309.97 441.18 309.29 442.02 308.61 C 441.61 311.36 440.58 313.96 438.97 316.23 C 439.05 314.36 438.99 312.46 439.51 310.66 Z" />
</g>
<g id="#fae9a7ff">
<path fill="#fae9a7" opacity="1.00" d=" M 243.44 323.90 C 244.50 320.06 245.98 316.35 247.73 312.77 C 250.29 314.50 252.83 316.27 255.35 318.08 C 254.95 321.43 254.89 324.81 254.79 328.18 C 250.86 327.19 247.04 325.78 243.44 323.90 Z" />
</g>
<g id="#c0a7b0ff">
<path fill="#c0a7b0" opacity="1.00" d=" M 306.31 316.74 C 306.81 319.55 306.77 322.43 306.29 325.24 C 306.46 322.41 306.47 319.57 306.31 316.74 Z" />
</g>
<g id="#b9daf0ff">
<path fill="#b9daf0" opacity="1.00" d=" M 449.10 335.18 C 449.42 330.41 450.11 325.28 453.67 321.74 C 452.98 326.45 451.60 331.09 449.10 335.18 Z" />
</g>
<g id="#fdf3d0ff">
<path fill="#fdf3d0" opacity="1.00" d=" M 243.63 334.38 C 242.49 331.01 242.91 327.35 243.44 323.90 C 247.04 325.78 250.86 327.19 254.79 328.18 C 255.98 329.80 257.15 331.44 258.32 333.08 C 260.17 332.65 262.02 332.22 263.88 331.78 C 267.68 332.64 271.37 333.90 275.06 335.14 C 271.21 337.92 267.25 341.25 262.34 341.75 C 257.82 341.86 253.47 340.28 249.29 338.73 C 247.14 337.77 244.49 336.82 243.63 334.38 Z" />
</g>
<g id="#fae8a6ff">
<path fill="#fae8a6" opacity="1.00" d=" M 263.88 331.78 C 268.44 329.50 272.85 326.87 276.83 323.67 C 279.58 324.48 282.32 325.28 285.07 326.09 C 282.01 329.40 278.63 332.40 275.06 335.14 C 271.37 333.90 267.68 332.64 263.88 331.78 Z" />
</g>
<g id="#70b5e3ff">
<path fill="#70b5e3" opacity="1.00" d=" M 430.82 339.08 C 430.96 335.51 432.29 332.10 435.13 329.82 C 434.77 333.32 433.21 336.52 430.82 339.08 Z" />
</g>
<g id="#74b6e2ff">
<path fill="#74b6e2" opacity="1.00" d=" M 17.41 331.68 C 18.43 332.97 19.45 334.27 20.45 335.59 C 19.16 336.12 17.88 336.65 16.60 337.19 C 16.87 335.35 17.13 333.51 17.41 331.68 Z" />
</g>
<g id="#8ac1e4ff">
<path fill="#8ac1e4" opacity="1.00" d=" M 24.16 335.40 C 26.03 335.55 25.70 338.73 23.94 338.79 C 22.07 338.64 22.40 335.46 24.16 335.40 Z" />
</g>
<g id="#b0d5ecff">
<path fill="#b0d5ec" opacity="1.00" d=" M 444.08 346.39 C 444.81 342.80 445.95 339.17 448.63 336.53 C 447.89 340.13 446.25 343.45 444.08 346.39 Z" />
</g>
<g id="#78b8e2ff">
<path fill="#78b8e2" opacity="1.00" d=" M 27.59 343.52 C 28.39 342.11 29.19 340.69 29.98 339.28 C 30.18 339.59 30.57 340.21 30.76 340.52 C 29.91 344.30 29.21 348.40 31.24 351.96 C 31.19 352.24 31.09 352.80 31.04 353.07 C 30.19 356.16 30.20 359.37 30.57 362.53 C 30.58 365.10 30.34 367.66 30.08 370.22 C 29.98 368.08 29.88 365.94 29.77 363.80 C 28.30 367.87 27.13 372.04 26.49 376.33 C 26.24 378.51 25.38 380.53 24.49 382.51 C 24.39 377.29 25.87 372.24 27.18 367.24 C 28.81 361.21 28.01 354.92 27.77 348.77 C 26.93 350.12 26.09 351.48 25.28 352.85 C 25.23 349.14 24.80 345.44 24.01 341.81 C 25.20 342.38 26.40 342.95 27.59 343.52 Z" />
</g>
<g id="#eef6fbff">
<path fill="#eef6fb" opacity="1.00" d=" M 31.24 351.96 C 29.21 348.40 29.91 344.30 30.76 340.52 C 34.22 344.73 35.97 349.94 36.75 355.28 C 34.89 354.21 33.03 353.14 31.24 351.96 Z" />
</g>
<g id="#7abbe6ff">
<path fill="#7abbe6" opacity="1.00" d=" M 425.32 349.41 C 426.85 346.29 428.68 343.33 430.80 340.58 C 428.25 348.21 425.25 355.88 419.97 362.09 C 420.74 362.92 421.52 363.75 422.30 364.59 C 420.57 364.36 418.86 364.13 417.14 363.91 C 419.87 359.07 422.85 354.38 425.32 349.41 Z" />
<path fill="#7abbe6" opacity="1.00" d=" M 105.67 422.84 C 109.77 424.34 113.48 426.81 116.24 430.22 C 112.22 428.56 108.55 426.12 105.67 422.84 Z" />
</g>
<g id="#91c7eaff">
<path fill="#91c7ea" opacity="1.00" d=" M 14.29 342.45 C 15.61 341.01 17.90 343.30 16.47 344.63 C 15.15 346.07 12.86 343.78 14.29 342.45 Z" />
</g>
<g id="#dfe0e0ff">
<path fill="#dfe0e0" opacity="1.00" d=" M 246.57 341.63 C 249.32 342.54 252.05 343.49 254.78 344.46 C 248.62 350.20 248.01 359.00 244.19 366.10 C 239.83 375.01 232.71 382.08 227.40 390.38 C 222.19 398.04 219.32 406.94 215.02 415.08 C 213.73 417.70 210.82 418.70 208.42 420.00 C 208.90 421.39 209.39 422.79 209.88 424.19 C 208.46 424.76 207.05 425.35 205.64 425.96 C 204.18 428.14 202.59 430.23 200.87 432.21 C 197.94 431.21 195.01 430.13 192.33 428.56 C 191.46 428.06 190.59 427.57 189.73 427.08 C 191.76 426.35 193.80 425.64 195.84 424.94 C 195.75 424.13 195.66 423.33 195.56 422.53 C 194.25 422.49 192.94 422.45 191.63 422.42 C 191.46 421.93 191.12 420.94 190.95 420.44 C 192.82 420.31 194.70 420.17 196.57 420.04 C 195.93 419.24 195.29 418.45 194.66 417.67 C 194.97 415.55 195.28 413.43 195.60 411.31 C 196.49 411.44 197.38 411.57 198.27 411.70 C 199.26 409.39 200.26 407.08 201.27 404.78 C 202.10 404.57 202.94 404.37 203.77 404.18 C 204.78 401.20 206.47 398.47 209.06 396.62 C 212.30 392.35 215.25 387.84 218.88 383.88 C 222.65 379.63 227.31 376.32 231.31 372.31 C 236.47 367.25 240.76 361.25 243.55 354.58 C 245.29 350.46 245.88 346.00 246.57 341.63 Z" />
</g>
<g id="#aad2ecff">
<path fill="#aad2ec" opacity="1.00" d=" M 432.83 358.74 C 433.92 356.16 435.58 353.90 437.43 351.83 C 437.52 352.98 437.61 354.13 437.73 355.29 C 438.05 356.17 438.40 357.04 438.78 357.90 C 438.08 359.15 437.19 360.28 436.38 361.46 C 436.36 360.09 436.34 358.72 436.33 357.36 C 433.10 361.83 430.51 366.75 427.03 371.05 C 428.85 366.89 431.00 362.89 432.83 358.74 Z" />
</g>
<g id="#e6f1f9ff">
<path fill="#e6f1f9" opacity="1.00" d=" M 30.57 362.53 C 30.20 359.37 30.19 356.16 31.04 353.07 C 31.74 355.17 32.89 357.19 33.02 359.45 C 32.31 360.55 31.42 361.52 30.57 362.53 Z" />
</g>
<g id="#d9ebf8ff">
<path fill="#d9ebf8" opacity="1.00" d=" M 478.71 383.74 C 484.27 374.90 488.75 365.44 492.84 355.85 C 492.88 361.49 493.34 367.51 490.68 372.70 C 488.08 377.62 483.44 381.04 478.71 383.74 Z" />
</g>
<g id="#9dcbe8ff">
<path fill="#9dcbe8" opacity="1.00" d=" M 19.30 366.26 C 19.94 362.97 21.07 359.57 24.25 357.91 C 23.41 361.11 21.57 363.90 19.30 366.26 Z" />
<path fill="#9dcbe8" opacity="1.00" d=" M 321.89 449.57 C 324.33 448.87 326.86 447.74 329.46 448.24 C 330.17 449.07 330.82 449.96 331.39 450.91 C 328.18 450.83 325.00 450.34 321.89 449.57 Z" />
</g>
<g id="#7abce8ff">
<path fill="#7abce8" opacity="1.00" d=" M 412.22 370.77 C 413.20 369.07 414.81 367.90 416.36 366.75 C 415.71 368.54 415.04 370.37 413.87 371.91 C 413.46 371.63 412.63 371.06 412.22 370.77 Z" />
</g>
<g id="#60abdcff">
<path fill="#60abdc" opacity="1.00" d=" M 29.06 398.67 C 28.15 394.73 29.83 390.84 31.12 387.19 C 32.23 391.25 33.49 395.70 31.82 399.80 C 30.62 400.10 29.70 399.72 29.06 398.67 Z" />
</g>
<g id="#93c4e4ff">
<path fill="#93c4e4" opacity="1.00" d=" M 22.31 391.59 C 24.18 391.94 23.33 396.03 21.45 395.41 C 20.49 394.32 20.91 392.11 22.31 391.59 Z" />
</g>
<g id="#b0d6f0ff">
<path fill="#b0d6f0" opacity="1.00" d=" M 385.25 400.91 C 386.44 399.70 387.68 398.54 388.92 397.38 C 389.09 397.96 389.41 399.12 389.58 399.70 C 391.40 399.77 393.22 399.85 395.04 399.83 C 391.92 403.11 388.36 405.94 385.27 409.25 C 381.87 412.86 378.87 416.90 374.85 419.87 C 371.04 422.69 366.92 425.11 362.58 427.00 C 359.74 426.05 356.79 425.56 353.82 425.30 C 355.82 424.55 357.81 423.77 359.80 423.01 C 365.02 421.66 369.93 419.41 374.45 416.50 C 374.12 416.30 373.45 415.89 373.12 415.68 C 374.95 414.02 376.77 412.35 378.60 410.69 C 378.14 410.06 377.68 409.44 377.23 408.83 C 378.38 407.72 379.56 406.65 380.75 405.60 C 383.66 404.71 386.58 403.82 389.39 402.64 C 388.00 402.05 386.63 401.48 385.25 400.91 Z" />
</g>
<g id="#5cabe0ff">
<path fill="#5cabe0" opacity="1.00" d=" M 385.25 400.91 C 386.63 401.48 388.00 402.05 389.39 402.64 C 386.58 403.82 383.66 404.71 380.75 405.60 C 382.28 404.07 383.73 402.46 385.25 400.91 Z" />
</g>
<g id="#f4f9fcff">
<path fill="#f4f9fc" opacity="1.00" d=" M 130.22 409.81 C 132.02 408.81 133.72 407.19 135.89 407.18 C 137.49 407.89 139.04 408.69 140.61 409.48 C 140.11 410.14 139.62 410.81 139.13 411.49 C 140.54 411.77 141.94 412.04 143.34 412.37 C 148.54 413.57 152.51 417.35 157.05 419.90 C 163.62 423.60 169.80 427.96 176.46 431.51 C 181.15 434.30 186.32 436.17 190.96 439.03 C 197.03 443.54 204.07 446.50 210.11 451.03 C 209.58 451.05 208.51 451.09 207.97 451.11 C 206.17 450.72 204.53 449.87 202.86 449.15 C 197.94 446.86 192.62 445.61 187.69 443.32 C 176.28 438.20 165.60 431.61 155.09 424.85 C 152.48 422.93 149.35 421.97 146.23 421.22 C 144.67 419.23 142.67 417.66 140.37 416.61 C 136.68 414.83 133.27 412.53 130.22 409.81 Z" />
</g>
<g id="#94c7e8ff">
<path fill="#94c7e8" opacity="1.00" d=" M 135.89 407.18 C 137.50 407.47 139.15 407.69 140.69 408.26 C 141.95 409.33 142.51 410.98 143.34 412.37 C 141.94 412.04 140.54 411.77 139.13 411.49 C 139.62 410.81 140.11 410.14 140.61 409.48 C 139.04 408.69 137.49 407.89 135.89 407.18 Z" />
</g>
<g id="#a1cce9ff">
<path fill="#a1cce9" opacity="1.00" d=" M 148.82 409.90 C 149.65 408.86 150.48 407.82 151.32 406.79 C 154.22 408.39 156.99 410.22 159.62 412.24 C 156.98 411.62 154.34 410.96 151.68 410.44 C 150.73 410.25 149.77 410.07 148.82 409.90 Z" />
</g>
<g id="#a6d1edff">
<path fill="#a6d1ed" opacity="1.00" d=" M 407.90 412.26 C 408.86 409.42 411.13 407.56 413.91 406.63 C 412.59 409.15 410.73 411.42 407.90 412.26 Z" />
</g>
<g id="#57a7dcff">
<path fill="#57a7dc" opacity="1.00" d=" M 377.23 408.83 C 377.68 409.44 378.14 410.06 378.60 410.69 C 376.77 412.35 374.95 414.02 373.12 415.68 C 373.45 415.89 374.12 416.30 374.45 416.50 C 369.93 419.41 365.02 421.66 359.80 423.01 C 366.12 418.94 371.98 414.20 377.23 408.83 Z" />
</g>
<g id="#76b7e2ff">
<path fill="#76b7e2" opacity="1.00" d=" M 17.33 413.31 C 18.79 412.14 20.46 414.67 18.97 415.66 C 17.51 416.82 15.83 414.30 17.33 413.31 Z" />
</g>
<g id="#94c6e6ff">
<path fill="#94c6e6" opacity="1.00" d=" M 172.09 419.74 C 175.53 422.03 179.09 424.15 182.43 426.59 C 178.10 426.36 173.33 424.27 172.09 419.74 Z" />
</g>
<g id="#b8d9eeff">
<path fill="#b8d9ee" opacity="1.00" d=" M 399.26 421.19 C 402.14 420.88 399.33 425.14 397.66 423.69 C 397.00 422.60 398.29 421.44 399.26 421.19 Z" />
</g>
<g id="#7dbbe3ff">
<path fill="#7dbbe3" opacity="1.00" d=" M 86.98 423.73 C 88.24 424.22 89.53 424.67 90.71 425.35 C 91.84 426.70 92.40 428.41 93.11 430.01 C 90.42 428.63 88.23 426.50 86.98 423.73 Z" />
</g>
<g id="#7bbae4ff">
<path fill="#7bbae4" opacity="1.00" d=" M 183.50 423.73 C 185.59 424.82 187.68 425.91 189.73 427.08 C 190.59 427.57 191.46 428.06 192.33 428.56 C 191.53 429.38 190.73 430.20 189.93 431.03 C 187.79 429.81 185.66 428.58 183.53 427.36 C 183.52 426.14 183.51 424.93 183.50 423.73 Z" />
</g>
<g id="#c0def1ff">
<path fill="#c0def1" opacity="1.00" d=" M 386.88 433.98 C 389.13 430.18 392.21 426.82 396.33 425.05 C 395.22 429.70 390.80 432.00 386.88 433.98 Z" />
</g>
<g id="#a5cfeaff">
<path fill="#a5cfea" opacity="1.00" d=" M 70.45 428.23 C 71.10 428.18 72.41 428.08 73.07 428.03 C 72.92 429.79 72.79 431.55 72.65 433.32 C 71.94 431.61 71.21 429.91 70.45 428.23 Z" />
</g>
<g id="#7abae4ff">
<path fill="#7abae4" opacity="1.00" d=" M 96.03 431.81 C 98.69 432.34 100.88 433.87 102.21 436.25 C 99.89 435.15 97.80 433.66 96.03 431.81 Z" />
</g>
<g id="#8dc4e7ff">
<path fill="#8dc4e7" opacity="1.00" d=" M 113.61 434.17 C 115.05 433.83 116.49 433.50 117.93 433.17 C 118.19 434.57 118.45 435.97 118.72 437.38 C 117.01 436.31 115.31 435.25 113.61 434.17 Z" />
</g>
<g id="#78bae6ff">
<path fill="#78bae6" opacity="1.00" d=" M 130.42 433.74 C 130.84 432.45 132.74 433.33 133.25 434.15 C 133.35 434.58 133.55 435.46 133.65 435.89 C 132.36 436.36 130.67 435.04 130.42 433.74 Z" />
</g>
<g id="#82c0e8ff">
<path fill="#82c0e8" opacity="1.00" d=" M 133.96 432.60 C 134.47 433.37 134.96 434.16 135.44 434.96 C 136.27 436.40 137.03 437.88 137.79 439.36 C 136.34 438.30 134.67 437.41 133.65 435.89 C 133.55 435.46 133.35 434.58 133.25 434.15 C 133.43 433.76 133.78 432.99 133.96 432.60 Z" />
</g>
<g id="#96c8eaff">
<path fill="#96c8ea" opacity="1.00" d=" M 328.70 436.96 C 332.42 435.85 336.12 434.68 339.81 433.49 C 340.29 434.13 340.77 434.77 341.26 435.42 C 342.25 435.07 343.24 434.72 344.24 434.41 C 346.48 433.68 348.82 433.41 351.15 433.17 C 347.62 435.40 343.65 436.87 339.48 437.28 C 335.90 436.90 332.30 436.92 328.70 436.96 Z" />
</g>
<g id="#e2eff8ff">
<path fill="#e2eff8" opacity="1.00" d=" M 137.79 439.36 C 137.03 437.88 136.27 436.40 135.44 434.96 C 138.22 435.61 141.15 435.92 143.74 437.19 C 145.14 438.40 145.83 440.19 146.73 441.77 C 147.30 440.51 147.87 439.26 148.44 438.03 C 148.94 439.85 149.43 441.69 149.91 443.53 C 148.43 443.27 146.92 443.09 145.51 442.58 C 144.50 441.76 143.77 440.66 142.99 439.64 C 141.26 439.51 139.52 439.44 137.79 439.36 Z" />
</g>
<g id="#91c5e7ff">
<path fill="#91c5e7" opacity="1.00" d=" M 121.69 436.96 C 125.65 438.31 130.26 440.25 131.21 444.82 C 127.82 442.49 124.05 440.47 121.69 436.96 Z" />
</g>
<g id="#7bbae5ff">
<path fill="#7bbae5" opacity="1.00" d=" M 316.86 439.72 C 320.22 438.68 324.29 436.79 327.25 439.73 C 323.82 440.49 320.28 440.46 316.86 439.72 Z" />
</g>
<g id="#7ebde5ff">
<path fill="#7ebde5" opacity="1.00" d=" M 137.79 439.36 C 139.52 439.44 141.26 439.51 142.99 439.64 C 143.77 440.66 144.50 441.76 145.51 442.58 C 146.92 443.09 148.43 443.27 149.91 443.53 C 150.67 443.65 151.42 443.80 152.17 443.99 C 151.51 444.55 150.86 445.12 150.21 445.70 C 150.69 446.14 151.66 447.01 152.14 447.45 C 151.78 447.39 151.07 447.26 150.72 447.20 C 145.60 446.37 141.88 442.22 137.79 439.36 Z" />
</g>
<g id="#d0e5f4ff">
<path fill="#d0e5f4" opacity="1.00" d=" M 190.96 439.03 C 198.13 441.23 204.98 444.34 211.97 447.06 C 223.69 452.66 237.04 452.88 249.16 457.21 C 253.03 455.12 257.46 455.98 261.62 456.34 C 270.81 457.28 280.10 457.50 289.18 459.31 C 285.62 460.64 281.83 461.15 278.04 461.06 C 269.12 460.93 260.10 461.49 251.28 459.79 C 242.05 457.99 232.73 456.66 223.62 454.27 C 218.48 452.86 213.13 452.44 207.97 451.11 C 208.51 451.09 209.58 451.05 210.11 451.03 C 204.07 446.50 197.03 443.54 190.96 439.03 Z" />
</g>
<g id="#84bee4ff">
<path fill="#84bee4" opacity="1.00" d=" M 230.47 442.35 C 235.13 442.22 239.75 442.86 244.32 443.72 C 243.09 444.16 241.86 444.57 240.61 444.95 C 237.06 444.93 233.50 444.30 230.47 442.35 Z" />
</g>
<g id="#79b9e3ff">
<path fill="#79b9e3" opacity="1.00" d=" M 61.26 448.57 C 61.42 446.84 62.11 445.23 62.72 443.64 C 63.23 445.84 63.60 448.07 63.88 450.32 C 63.05 449.68 62.17 449.09 61.26 448.57 Z" />
</g>
<g id="#cde4f3ff">
<path fill="#cde4f3" opacity="1.00" d=" M 152.17 443.99 C 155.95 446.48 159.53 449.27 163.16 451.98 C 159.34 450.84 155.71 449.20 152.14 447.45 C 151.66 447.01 150.69 446.14 150.21 445.70 C 150.86 445.12 151.51 444.55 152.17 443.99 Z" />
</g>
<g id="#8bc2e6ff">
<path fill="#8bc2e6" opacity="1.00" d=" M 258.85 445.21 C 267.61 445.66 276.35 445.01 285.08 444.43 C 282.12 445.13 279.11 445.67 276.06 445.69 C 270.32 445.73 264.55 445.98 258.85 445.21 Z" />
</g>
<g id="#b5d7eeff">
<path fill="#b5d7ee" opacity="1.00" d=" M 253.40 446.88 C 255.82 446.83 258.73 446.44 260.57 448.38 C 261.27 449.56 261.79 450.84 262.31 452.11 C 259.92 451.93 256.64 452.62 255.40 449.95 C 254.72 448.93 254.05 447.91 253.40 446.88 Z" />
</g>
<g id="#acd3ecff">
<path fill="#acd3ec" opacity="1.00" d=" M 332.82 447.47 C 335.20 446.47 337.75 446.05 340.34 446.05 C 339.75 446.92 339.11 447.75 338.43 448.54 C 336.51 448.58 334.66 447.92 332.82 447.47 Z" />
</g>
<g id="#75b7e2ff">
<path fill="#75b7e2" opacity="1.00" d=" M 137.62 447.35 C 144.87 450.79 151.35 455.57 157.78 460.32 C 159.10 461.14 159.44 462.73 160.07 464.05 C 154.77 461.40 149.65 458.21 145.50 453.94 C 142.76 451.88 140.03 449.80 137.62 447.35 Z" />
</g>
<g id="#bbdaefff">
<path fill="#bbdaef" opacity="1.00" d=" M 264.96 449.87 C 267.27 449.50 269.58 449.15 271.91 448.83 C 271.32 449.80 270.74 450.77 270.15 451.75 C 274.92 451.20 280.12 452.25 284.38 449.50 C 286.95 450.05 289.50 450.73 292.04 451.47 C 291.59 451.84 290.70 452.57 290.26 452.93 C 289.61 453.44 288.95 453.93 288.29 454.41 C 284.99 454.10 281.77 455.07 278.50 455.15 C 274.44 454.51 270.50 453.26 266.42 452.72 C 265.93 451.77 265.44 450.82 264.96 449.87 Z" />
</g>
<g id="#c3def1ff">
<path fill="#c3def1" opacity="1.00" d=" M 290.26 452.93 C 295.86 452.55 301.12 449.88 306.79 450.31 C 311.33 450.63 315.86 450.07 320.40 450.33 C 315.66 453.91 309.44 453.75 303.81 453.33 C 299.28 452.84 294.59 454.93 290.26 452.93 Z" />
</g>
<g id="#7bbbe5ff">
<path fill="#7bbbe5" opacity="1.00" d=" M 163.78 464.72 C 165.89 465.06 167.85 465.80 168.09 468.21 C 166.48 467.27 165.03 466.09 163.78 464.72 Z" />
</g>
<g id="#96c7e7ff">
<path fill="#96c7e7" opacity="1.00" d=" M 213.03 480.94 C 214.70 481.38 216.37 481.82 218.05 482.28 C 217.07 482.86 216.09 483.45 215.11 484.04 C 214.41 483.00 213.72 481.97 213.03 480.94 Z" />
</g>
</svg>
