<?xml version="1.0" encoding="UTF-8" ?>
<!DOCTYPE svg PUBLIC "-//W3C//DTD SVG 1.1//EN" "http://www.w3.org/Graphics/SVG/1.1/DTD/svg11.dtd">
<svg width="503pt" height="503pt" viewBox="0 0 503 503" version="1.1" xmlns="http://www.w3.org/2000/svg">
<g id="#ffffffff">
<path fill="#ffffff" opacity="1.00" d=" M 0.00 0.00 L 503.00 0.00 L 503.00 503.00 L 0.00 503.00 L 0.00 0.00 M 13.06 55.07 C 13.00 146.05 12.88 237.04 13.12 328.02 C 12.91 342.98 12.93 357.94 13.11 372.89 C 73.34 373.30 133.60 372.61 193.83 373.23 C 193.98 373.98 194.30 375.47 194.46 376.22 C 193.15 386.11 191.75 396.05 191.09 406.02 C 183.60 415.63 177.07 426.32 171.04 436.96 C 170.91 440.94 170.87 444.93 171.09 448.91 C 204.71 449.04 238.34 449.09 271.95 448.89 C 269.56 460.69 278.22 472.45 289.99 473.98 C 342.00 474.04 394.02 473.96 446.03 474.02 C 456.81 473.84 466.39 463.82 466.05 453.03 C 465.95 426.33 466.00 399.62 466.02 372.92 C 471.64 373.07 477.27 373.13 482.89 372.89 C 483.08 357.94 483.10 342.98 482.87 328.03 C 483.13 237.04 483.01 146.05 482.93 55.07 C 326.31 54.96 169.68 54.95 13.06 55.07 Z" />
<path fill="#ffffff" opacity="1.00" d=" M 283.19 140.09 C 340.19 139.47 397.24 139.59 454.25 140.04 C 449.25 153.96 445.58 168.36 439.75 181.98 C 409.29 182.78 378.77 182.21 348.29 182.23 L 348.21 183.10 C 348.13 184.34 348.07 185.58 348.02 186.82 C 378.04 187.32 408.07 186.79 438.10 187.07 C 431.70 205.81 424.50 224.25 417.98 242.95 C 394.70 243.10 371.40 242.67 348.13 243.14 C 348.13 244.37 348.14 245.61 348.13 246.85 C 370.80 247.33 393.49 246.84 416.16 247.08 C 410.50 265.97 402.34 284.04 396.81 302.96 C 381.16 303.24 365.51 302.83 349.87 303.14 C 349.95 304.39 350.05 305.63 350.16 306.88 L 350.27 307.76 C 364.88 307.85 379.53 307.22 394.13 307.97 C 393.51 310.30 392.87 312.62 392.10 314.91 C 378.05 314.99 364.00 314.64 349.96 315.01 C 349.97 316.31 349.97 317.62 349.95 318.94 C 363.35 319.25 376.76 318.86 390.16 319.09 C 387.12 329.20 383.35 339.08 379.64 348.96 C 351.55 349.79 323.39 349.23 295.28 349.20 L 295.17 350.07 C 294.69 357.34 294.88 364.64 295.08 371.91 C 319.73 372.19 344.40 371.87 369.05 372.05 C 369.55 372.06 370.54 372.06 371.04 372.06 C 364.11 394.70 355.58 416.81 348.15 439.28 L 347.86 440.18 L 347.12 440.04 C 325.91 438.09 304.46 440.31 283.19 438.93 C 282.92 339.33 282.89 239.69 283.19 140.09 M 289.02 180.12 C 290.83 191.40 282.17 215.43 300.98 214.03 C 310.96 211.99 325.15 218.60 332.05 209.07 C 333.49 198.87 332.68 188.27 332.47 177.94 C 333.34 168.50 321.25 169.66 315.00 169.95 C 306.04 170.97 287.63 165.30 289.02 180.12 M 347.85 194.78 C 347.97 196.14 348.07 197.51 348.16 198.88 C 366.04 199.10 383.94 199.11 401.82 198.87 C 401.91 197.51 402.02 196.15 402.15 194.79 C 384.17 194.02 365.82 194.02 347.85 194.78 M 289.01 240.08 C 289.87 250.32 286.89 261.53 290.78 271.16 C 299.38 277.11 311.14 272.60 321.03 274.08 C 340.08 274.73 330.75 249.69 332.46 237.97 C 333.35 228.58 321.25 229.63 315.00 229.95 C 306.06 230.93 287.77 225.39 289.01 240.08 M 347.86 254.83 C 347.98 256.17 348.07 257.53 348.14 258.88 C 366.03 259.09 383.94 259.12 401.82 258.87 C 401.90 257.52 402.00 256.18 402.13 254.85 C 384.20 253.97 365.80 254.01 347.86 254.83 M 290.46 298.05 C 290.77 308.58 289.15 319.46 291.26 329.76 C 298.62 338.32 312.11 332.12 322.02 334.07 C 341.92 335.22 331.54 309.02 333.99 297.00 C 333.37 288.88 323.86 289.77 318.00 289.99 C 309.23 291.60 291.81 285.00 290.46 298.05 Z" />
</g>
<g id="#455360ff">
<path fill="#455360" opacity="1.00" d=" M 13.06 55.07 C 169.68 54.95 326.31 54.96 482.93 55.07 C 483.01 146.05 483.13 237.04 482.87 328.03 C 477.24 328.01 471.61 328.00 465.98 327.97 C 465.95 325.63 465.90 323.28 465.91 320.94 C 468.45 320.46 470.97 319.88 473.51 319.37 C 474.39 233.77 474.20 148.01 473.61 62.39 C 323.24 61.74 172.76 61.74 22.38 62.39 C 21.75 148.09 21.74 233.91 22.39 319.61 C 105.24 321.05 188.31 318.67 271.10 320.80 C 271.09 323.19 271.04 325.58 271.02 327.97 C 185.05 328.05 99.09 327.95 13.12 328.02 C 12.88 237.04 13.00 146.05 13.06 55.07 Z" />
</g>
<g id="#525354ff">
<path fill="#525354" opacity="1.00" d=" M 22.38 62.39 C 172.76 61.74 323.24 61.74 473.61 62.39 C 474.20 148.01 474.39 233.77 473.51 319.37 C 470.97 319.88 468.45 320.46 465.91 320.94 C 465.92 318.45 466.08 315.97 466.17 313.49 C 469.07 310.77 467.83 306.51 468.06 303.00 C 467.86 225.37 468.17 147.73 467.90 70.10 C 321.31 69.94 174.70 69.93 28.10 70.10 C 27.93 151.03 27.93 231.97 28.11 312.90 C 109.07 313.17 190.04 312.88 271.01 313.03 C 271.03 315.62 271.09 318.21 271.10 320.80 C 188.31 318.67 105.24 321.05 22.39 319.61 C 21.74 233.91 21.75 148.09 22.38 62.39 Z" />
</g>
<g id="#d1d1d1ff">
<path fill="#d1d1d1" opacity="1.00" d=" M 28.10 70.10 C 174.70 69.93 321.31 69.94 467.90 70.10 C 468.17 147.73 467.86 225.37 468.06 303.00 C 467.83 306.51 469.07 310.77 466.17 313.49 C 465.77 251.66 466.11 189.81 466.00 127.98 C 465.84 117.17 455.84 107.63 445.04 107.96 C 396.99 108.02 348.93 108.04 300.87 107.95 C 305.00 96.34 310.39 85.24 314.92 73.79 C 220.54 72.21 125.84 73.00 31.39 73.39 C 30.74 152.09 30.74 230.91 31.39 309.62 C 92.75 310.33 154.22 310.12 215.59 309.72 C 217.88 304.87 219.74 299.84 222.00 294.98 C 222.70 294.97 224.12 294.96 224.82 294.96 C 240.21 295.04 255.60 294.98 270.99 294.99 C 271.02 301.00 270.98 307.02 271.01 313.03 C 190.04 312.88 109.07 313.17 28.11 312.90 C 27.93 231.97 27.93 151.03 28.10 70.10 Z" />
<path fill="#d1d1d1" opacity="1.00" d=" M 240.92 250.95 C 250.10 226.93 260.24 203.20 270.85 179.76 C 271.18 203.51 270.93 227.26 270.99 251.01 C 261.65 250.98 252.32 251.03 242.99 250.97 C 242.47 250.96 241.44 250.96 240.92 250.95 Z" />
</g>
<g id="#dcdcdcff">
<path fill="#dcdcdc" opacity="1.00" d=" M 31.39 73.39 C 125.84 73.00 220.54 72.21 314.92 73.79 C 310.39 85.24 305.00 96.34 300.87 107.95 C 288.11 105.48 272.81 112.65 271.64 126.78 C 230.43 127.37 189.21 126.69 148.00 127.12 C 148.00 129.04 148.00 130.97 148.00 132.89 C 188.99 133.13 229.99 132.96 270.98 132.97 C 270.91 148.57 271.20 164.17 270.85 179.76 C 260.24 203.20 250.10 226.93 240.92 250.95 C 182.99 251.14 125.04 250.82 67.11 251.11 C 66.91 265.70 66.91 280.30 67.11 294.89 C 118.73 295.13 170.37 294.95 222.00 294.98 C 219.74 299.84 217.88 304.87 215.59 309.72 C 154.22 310.12 92.75 310.33 31.39 309.62 C 30.74 230.91 30.74 152.09 31.39 73.39 M 68.49 120.98 C 67.40 132.95 68.28 145.02 67.98 157.03 C 67.40 163.28 72.61 169.26 79.01 168.98 C 91.33 169.03 103.67 169.03 116.00 168.97 C 122.39 169.26 127.61 163.28 127.02 157.02 C 126.71 144.98 127.59 132.88 126.56 120.88 C 127.83 115.22 122.59 109.93 117.02 110.04 C 104.01 109.87 90.99 109.89 77.98 110.03 C 72.34 109.93 67.17 115.27 68.49 120.98 M 148.00 143.07 C 147.98 145.02 147.99 146.97 148.00 148.92 C 180.33 149.06 212.67 149.05 245.00 148.92 C 245.01 146.97 245.01 145.02 245.00 143.08 C 212.67 142.95 180.33 142.94 148.00 143.07 M 68.49 189.98 C 67.39 201.95 68.28 214.02 67.98 226.03 C 67.37 232.30 72.61 238.28 79.00 237.98 C 91.33 238.02 103.67 238.04 116.00 237.98 C 122.40 238.28 127.62 232.29 127.03 226.03 C 126.72 213.99 127.59 201.88 126.56 189.88 C 127.79 184.23 122.57 178.97 117.01 179.03 C 104.01 178.88 90.99 178.88 77.99 179.04 C 72.36 178.98 67.20 184.27 68.49 189.98 M 148.01 196.08 C 147.99 198.02 147.99 199.97 148.00 201.93 C 185.00 202.05 222.01 202.06 259.00 201.92 C 259.01 199.97 259.01 198.02 259.00 196.08 C 222.00 195.95 185.00 195.95 148.01 196.08 M 148.00 212.07 C 147.99 214.02 147.99 215.97 148.00 217.92 C 180.33 218.05 212.67 218.05 245.00 217.92 C 245.01 215.97 245.01 214.02 245.00 212.08 C 212.67 211.94 180.33 211.95 148.00 212.07 Z" />
</g>
<g id="#5a5a5aff">
<path fill="#5a5a5a" opacity="1.00" d=" M 271.64 126.78 C 272.81 112.65 288.11 105.48 300.87 107.95 C 348.93 108.04 396.99 108.02 445.04 107.96 C 455.84 107.63 465.84 117.17 466.00 127.98 C 466.11 189.81 465.77 251.66 466.17 313.49 C 466.08 315.97 465.92 318.45 465.91 320.94 C 465.90 323.28 465.95 325.63 465.98 327.97 C 466.04 342.95 465.95 357.94 466.02 372.92 C 466.00 399.62 465.95 426.33 466.05 453.03 C 466.39 463.82 456.81 473.84 446.03 474.02 C 394.02 473.96 342.00 474.04 289.99 473.98 C 278.22 472.45 269.56 460.69 271.95 448.89 C 271.85 444.93 271.21 441.01 270.96 437.07 C 270.99 426.70 271.04 416.33 270.98 405.96 C 271.01 394.99 271.01 384.01 270.98 373.04 C 271.04 358.02 270.96 342.99 271.02 327.97 C 271.04 325.58 271.09 323.19 271.10 320.80 C 271.09 318.21 271.03 315.62 271.01 313.03 C 270.98 307.02 271.02 301.00 270.99 294.99 C 271.01 280.33 271.01 265.67 270.99 251.01 C 270.93 227.26 271.18 203.51 270.85 179.76 C 271.20 164.17 270.91 148.57 270.98 132.97 C 271.08 130.90 271.30 128.83 271.64 126.78 M 290.42 113.43 C 276.48 116.97 274.96 133.06 275.99 145.00 C 275.98 239.00 276.00 333.00 275.98 427.00 C 277.53 441.53 272.06 464.23 291.22 468.76 C 341.79 469.32 392.43 468.81 443.03 469.01 C 452.71 469.18 461.18 460.71 461.01 451.03 C 460.95 344.02 461.04 237.01 460.96 130.01 C 460.69 120.27 451.67 112.40 442.04 112.96 C 391.51 113.35 340.88 112.42 290.42 113.43 Z" />
</g>
<g id="#acacacff">
<path fill="#acacac" opacity="1.00" d=" M 68.49 120.98 C 67.17 115.27 72.34 109.93 77.98 110.03 C 90.99 109.89 104.01 109.87 117.02 110.04 C 122.59 109.93 127.83 115.22 126.56 120.88 C 120.72 110.02 106.84 115.08 97.00 113.99 C 87.48 114.96 73.85 110.19 68.49 120.98 Z" />
<path fill="#acacac" opacity="1.00" d=" M 68.49 189.98 C 67.20 184.27 72.36 178.98 77.99 179.04 C 90.99 178.88 104.01 178.88 117.01 179.03 C 122.57 178.97 127.79 184.23 126.56 189.88 C 120.72 179.02 106.85 184.07 97.00 182.99 C 87.48 183.97 73.85 179.19 68.49 189.98 Z" />
</g>
<g id="#e3e3e3ff">
<path fill="#e3e3e3" opacity="1.00" d=" M 290.42 113.43 C 340.88 112.42 391.51 113.35 442.04 112.96 C 451.67 112.40 460.69 120.27 460.96 130.01 C 461.04 237.01 460.95 344.02 461.01 451.03 C 461.18 460.71 452.71 469.18 443.03 469.01 C 392.43 468.81 341.79 469.32 291.22 468.76 C 272.06 464.23 277.53 441.53 275.98 427.00 C 276.00 333.00 275.98 239.00 275.99 145.00 C 274.96 133.06 276.48 116.97 290.42 113.43 M 350.98 116.21 C 350.96 117.42 350.95 118.64 350.94 119.85 C 362.24 120.43 373.60 120.27 384.90 119.99 C 387.65 120.17 387.50 115.97 384.88 116.08 C 373.60 115.85 362.26 115.71 350.98 116.21 M 367.00 131.07 C 368.35 131.07 369.70 131.08 371.06 131.11 C 372.97 125.87 365.06 125.81 367.00 131.07 M 281.13 137.11 L 281.11 137.97 C 280.94 239.02 280.49 340.15 281.33 441.16 L 280.72 441.80 C 339.53 441.90 398.36 441.47 457.15 442.14 C 458.12 340.81 458.06 239.08 457.18 137.71 L 457.14 136.63 C 456.33 137.35 455.74 138.19 455.37 139.16 L 454.76 138.30 L 454.86 137.19 C 396.95 137.34 339.03 137.51 281.13 137.11 M 361.00 459.75 C 366.55 459.80 372.11 459.94 377.65 459.57 C 377.85 457.51 377.87 455.45 377.72 453.40 C 371.97 448.64 357.85 449.77 361.00 459.75 M 412.93 459.94 C 417.31 460.27 421.70 460.29 426.08 459.99 C 426.11 457.60 426.18 455.21 426.35 452.83 C 427.52 454.13 428.28 455.72 428.99 457.32 C 429.12 455.22 429.17 453.11 429.12 451.01 C 422.77 450.02 410.43 450.46 412.93 459.94 M 310.77 455.84 C 314.69 455.06 318.70 454.66 322.70 455.05 C 323.38 456.08 324.08 457.10 324.81 458.11 C 326.16 452.02 309.67 451.64 310.77 455.84 Z" />
</g>
<g id="#5a9fcbff">
<path fill="#5a9fcb" opacity="1.00" d=" M 68.49 120.98 C 73.85 110.19 87.48 114.96 97.00 113.99 C 106.84 115.08 120.72 110.02 126.56 120.88 C 127.59 132.88 126.71 144.98 127.02 157.02 C 127.61 163.28 122.39 169.26 116.00 168.97 C 103.67 169.03 91.33 169.03 79.01 168.98 C 72.61 169.26 67.40 163.28 67.98 157.03 C 68.28 145.02 67.40 132.95 68.49 120.98 Z" />
<path fill="#5a9fcb" opacity="1.00" d=" M 68.49 189.98 C 73.85 179.19 87.48 183.97 97.00 182.99 C 106.85 184.07 120.72 179.02 126.56 189.88 C 127.59 201.88 126.72 213.99 127.03 226.03 C 127.62 232.29 122.40 238.28 116.00 237.98 C 103.67 238.04 91.33 238.02 79.00 237.98 C 72.61 238.28 67.37 232.30 67.98 226.03 C 68.28 214.02 67.39 201.95 68.49 189.98 Z" />
<path fill="#5a9fcb" opacity="1.00" d=" M 67.11 251.11 C 125.04 250.82 182.99 251.14 240.92 250.95 C 241.44 250.96 242.47 250.96 242.99 250.97 C 237.81 265.98 230.76 280.25 224.82 294.96 C 224.12 294.96 222.70 294.97 222.00 294.98 C 170.37 294.95 118.73 295.13 67.11 294.89 C 66.91 280.30 66.91 265.70 67.11 251.11 Z" />
</g>
<g id="#8c9797ff">
<path fill="#8c9797" opacity="1.00" d=" M 350.98 116.21 C 362.26 115.71 373.60 115.85 384.88 116.08 C 387.50 115.97 387.65 120.17 384.90 119.99 C 373.60 120.27 362.24 120.43 350.94 119.85 C 350.95 118.64 350.96 117.42 350.98 116.21 Z" />
<path fill="#8c9797" opacity="1.00" d=" M 455.37 139.16 C 455.74 138.19 456.33 137.35 457.14 136.63 L 457.18 137.71 C 457.21 238.84 457.30 339.97 457.14 441.10 C 420.76 440.85 384.04 442.70 347.86 440.18 C 383.45 439.07 419.11 439.85 454.73 439.79 L 454.84 438.91 C 455.45 339.30 454.77 239.64 455.18 140.03 L 455.37 139.16 Z" />
</g>
<g id="#c35c4dff">
<path fill="#c35c4d" opacity="1.00" d=" M 148.00 127.12 C 189.21 126.69 230.43 127.37 271.64 126.78 C 271.30 128.83 271.08 130.90 270.98 132.97 C 229.99 132.96 188.99 133.13 148.00 132.89 C 148.00 130.97 148.00 129.04 148.00 127.12 Z" />
<path fill="#c35c4d" opacity="1.00" d=" M 148.00 143.07 C 180.33 142.94 212.67 142.95 245.00 143.08 C 245.01 145.02 245.01 146.97 245.00 148.92 C 212.67 149.05 180.33 149.06 148.00 148.92 C 147.99 146.97 147.98 145.02 148.00 143.07 Z" />
<path fill="#c35c4d" opacity="1.00" d=" M 148.01 196.08 C 185.00 195.95 222.00 195.95 259.00 196.08 C 259.01 198.02 259.01 199.97 259.00 201.92 C 222.01 202.06 185.00 202.05 148.00 201.93 C 147.99 199.97 147.99 198.02 148.01 196.08 Z" />
<path fill="#c35c4d" opacity="1.00" d=" M 148.00 212.07 C 180.33 211.95 212.67 211.94 245.00 212.08 C 245.01 214.02 245.01 215.97 245.00 217.92 C 212.67 218.05 180.33 218.05 148.00 217.92 C 147.99 215.97 147.99 214.02 148.00 212.07 Z" />
</g>
<g id="#888888ff">
<path fill="#888888" opacity="1.00" d=" M 367.00 131.07 C 365.06 125.81 372.97 125.87 371.06 131.11 C 369.70 131.08 368.35 131.07 367.00 131.07 Z" />
</g>
<g id="#a8b0b0ff">
<path fill="#a8b0b0" opacity="1.00" d=" M 281.13 137.11 C 339.03 137.51 396.95 137.34 454.86 137.19 L 454.76 138.30 C 396.95 137.09 338.97 137.75 281.11 137.97 L 281.13 137.11 Z" />
</g>
<g id="#8a9595ff">
<path fill="#8a9595" opacity="1.00" d=" M 281.11 137.97 C 338.97 137.75 396.95 137.09 454.76 138.30 L 455.37 139.16 C 398.01 139.49 340.65 139.38 283.29 139.21 L 283.19 140.09 C 282.89 239.69 282.92 339.33 283.19 438.93 L 283.29 439.80 C 304.56 439.77 325.87 439.23 347.12 440.04 C 325.44 442.71 303.22 440.48 281.33 441.16 C 280.49 340.15 280.94 239.02 281.11 137.97 Z" />
</g>
<g id="#c9ccccff">
<path fill="#c9cccc" opacity="1.00" d=" M 457.18 137.71 C 458.06 239.08 458.12 340.81 457.15 442.14 L 457.14 441.10 C 457.30 339.97 457.21 238.84 457.18 137.71 Z" />
</g>
<g id="#b2b9b9ff">
<path fill="#b2b9b9" opacity="1.00" d=" M 283.29 139.21 C 340.65 139.38 398.01 139.49 455.37 139.16 L 455.18 140.03 L 454.25 140.04 C 397.24 139.59 340.19 139.47 283.19 140.09 L 283.29 139.21 Z" />
</g>
<g id="#dadadaff">
<path fill="#dadada" opacity="1.00" d=" M 454.25 140.04 L 455.18 140.03 C 454.77 239.64 455.45 339.30 454.84 438.91 C 419.30 439.73 383.71 438.99 348.15 439.28 C 355.58 416.81 364.11 394.70 371.04 372.06 C 397.72 371.83 424.41 372.20 451.09 371.89 C 451.56 364.58 451.55 357.24 451.09 349.93 C 427.42 349.37 403.71 349.73 380.03 349.77 C 351.75 349.84 323.44 349.23 295.17 350.07 L 295.28 349.20 C 323.39 349.23 351.55 349.79 379.64 348.96 C 383.35 339.08 387.12 329.20 390.16 319.09 C 394.45 319.15 398.74 319.11 403.03 318.95 C 403.01 317.63 403.01 316.32 403.03 315.02 C 399.39 314.88 395.75 314.84 392.10 314.91 C 392.87 312.62 393.51 310.30 394.13 307.97 C 379.53 307.22 364.88 307.85 350.27 307.76 L 350.16 306.88 C 382.82 307.18 415.52 307.61 448.18 307.09 C 448.15 305.75 448.16 304.41 448.20 303.07 C 431.07 302.82 413.94 303.09 396.81 302.96 C 402.34 284.04 410.50 265.97 416.16 247.08 C 426.44 246.94 436.73 247.31 447.00 246.95 C 446.98 245.64 446.97 244.34 446.99 243.04 C 437.33 242.66 427.65 242.99 417.98 242.95 C 424.50 224.25 431.70 205.81 438.10 187.07 C 441.07 187.10 444.04 186.99 447.02 186.90 C 446.98 185.57 446.96 184.24 446.98 182.91 C 414.07 182.73 381.11 182.41 348.21 183.10 L 348.29 182.23 C 378.77 182.21 409.29 182.78 439.75 181.98 C 445.58 168.36 449.25 153.96 454.25 140.04 Z" />
</g>
<g id="#adaeaeff">
<path fill="#adaeae" opacity="1.00" d=" M 289.02 180.12 C 287.63 165.30 306.04 170.97 315.00 169.95 C 321.25 169.66 333.34 168.50 332.47 177.94 C 326.92 169.86 316.15 173.89 308.00 172.96 C 301.33 173.03 290.51 171.03 289.02 180.12 Z" />
</g>
<g id="#4b9dd2ff">
<path fill="#4b9dd2" opacity="1.00" d=" M 289.02 180.12 C 290.51 171.03 301.33 173.03 308.00 172.96 C 316.15 173.89 326.92 169.86 332.47 177.94 C 332.68 188.27 333.49 198.87 332.05 209.07 C 325.15 218.60 310.96 211.99 300.98 214.03 C 282.17 215.43 290.83 191.40 289.02 180.12 Z" />
<path fill="#4b9dd2" opacity="1.00" d=" M 290.46 298.05 C 295.11 291.12 303.94 293.23 311.00 293.04 C 318.75 293.36 327.68 291.17 333.99 297.00 C 331.54 309.02 341.92 335.22 322.02 334.07 C 312.11 332.12 298.62 338.32 291.26 329.76 C 289.15 319.46 290.77 308.58 290.46 298.05 Z" />
</g>
<g id="#c54735ff">
<path fill="#c54735" opacity="1.00" d=" M 348.21 183.10 C 381.11 182.41 414.07 182.73 446.98 182.91 C 446.96 184.24 446.98 185.57 447.02 186.90 C 444.04 186.99 441.07 187.10 438.10 187.07 C 408.07 186.79 378.04 187.32 348.02 186.82 C 348.07 185.58 348.13 184.34 348.21 183.10 Z" />
</g>
<g id="#e5aba3ff">
<path fill="#e5aba3" opacity="1.00" d=" M 347.85 194.78 C 365.82 194.02 384.17 194.02 402.15 194.79 C 384.05 194.58 365.95 194.61 347.85 194.78 Z" />
</g>
<g id="#c84c39ff">
<path fill="#c84c39" opacity="1.00" d=" M 347.85 194.78 C 365.95 194.61 384.05 194.58 402.15 194.79 C 402.02 196.15 401.91 197.51 401.82 198.87 C 383.94 199.11 366.04 199.10 348.16 198.88 C 348.07 197.51 347.97 196.14 347.85 194.78 Z" />
</g>
<g id="#b0afafff">
<path fill="#b0afaf" opacity="1.00" d=" M 289.01 240.08 C 287.77 225.39 306.06 230.93 315.00 229.95 C 321.25 229.63 333.35 228.58 332.46 237.97 C 327.14 230.15 316.87 233.72 309.00 232.99 C 302.04 233.15 290.95 230.77 289.01 240.08 Z" />
</g>
<g id="#4a9dd2ff">
<path fill="#4a9dd2" opacity="1.00" d=" M 289.01 240.08 C 290.95 230.77 302.04 233.15 309.00 232.99 C 316.87 233.72 327.14 230.15 332.46 237.97 C 330.75 249.69 340.08 274.73 321.03 274.08 C 311.14 272.60 299.38 277.11 290.78 271.16 C 286.89 261.53 289.87 250.32 289.01 240.08 Z" />
</g>
<g id="#bc4432ff">
<path fill="#bc4432" opacity="1.00" d=" M 348.13 243.14 C 371.40 242.67 394.70 243.10 417.98 242.95 C 427.65 242.99 437.33 242.66 446.99 243.04 C 446.97 244.34 446.98 245.64 447.00 246.95 C 436.73 247.31 426.44 246.94 416.16 247.08 C 393.49 246.84 370.80 247.33 348.13 246.85 C 348.14 245.61 348.13 244.37 348.13 243.14 Z" />
</g>
<g id="#4c7d9cff">
<path fill="#4c7d9c" opacity="1.00" d=" M 242.99 250.97 C 252.32 251.03 261.65 250.98 270.99 251.01 C 271.01 265.67 271.01 280.33 270.99 294.99 C 255.60 294.98 240.21 295.04 224.82 294.96 C 230.76 280.25 237.81 265.98 242.99 250.97 Z" />
</g>
<g id="#f0cdc8ff">
<path fill="#f0cdc8" opacity="1.00" d=" M 347.86 254.83 C 365.80 254.01 384.20 253.97 402.13 254.85 C 384.04 254.74 365.95 254.77 347.86 254.83 Z" />
</g>
<g id="#c84937ff">
<path fill="#c84937" opacity="1.00" d=" M 347.86 254.83 C 365.95 254.77 384.04 254.74 402.13 254.85 C 402.00 256.18 401.90 257.52 401.82 258.87 C 383.94 259.12 366.03 259.09 348.14 258.88 C 348.07 257.53 347.98 256.17 347.86 254.83 Z" />
</g>
<g id="#b2b0b0ff">
<path fill="#b2b0b0" opacity="1.00" d=" M 290.46 298.05 C 291.81 285.00 309.23 291.60 318.00 289.99 C 323.86 289.77 333.37 288.88 333.99 297.00 C 327.68 291.17 318.75 293.36 311.00 293.04 C 303.94 293.23 295.11 291.12 290.46 298.05 Z" />
</g>
<g id="#b2402fff">
<path fill="#b2402f" opacity="1.00" d=" M 349.87 303.14 C 365.51 302.83 381.16 303.24 396.81 302.96 C 413.94 303.09 431.07 302.82 448.20 303.07 C 448.16 304.41 448.15 305.75 448.18 307.09 C 415.52 307.61 382.82 307.18 350.16 306.88 C 350.05 305.63 349.95 304.39 349.87 303.14 Z" />
</g>
<g id="#bf4433ff">
<path fill="#bf4433" opacity="1.00" d=" M 349.96 315.01 C 364.00 314.64 378.05 314.99 392.10 314.91 C 395.75 314.84 399.39 314.88 403.03 315.02 C 403.01 316.32 403.01 317.63 403.03 318.95 C 398.74 319.11 394.45 319.15 390.16 319.09 C 376.76 318.86 363.35 319.25 349.95 318.94 C 349.97 317.62 349.97 316.31 349.96 315.01 Z" />
</g>
<g id="#e0e4e5ff">
<path fill="#e0e4e5" opacity="1.00" d=" M 13.12 328.02 C 99.09 327.95 185.05 328.05 271.02 327.97 C 270.96 342.99 271.04 358.02 270.98 373.04 C 245.75 373.08 220.51 372.79 195.28 373.16 C 195.00 374.17 194.72 375.19 194.46 376.22 C 194.30 375.47 193.98 373.98 193.83 373.23 C 133.60 372.61 73.34 373.30 13.11 372.89 C 12.93 357.94 12.91 342.98 13.12 328.02 M 240.08 340.07 C 239.90 345.36 239.90 350.64 240.07 355.93 C 245.35 356.09 250.64 356.09 255.93 355.93 C 256.10 350.64 256.10 345.35 255.93 340.07 C 250.65 339.90 245.36 339.90 240.08 340.07 Z" />
<path fill="#e0e4e5" opacity="1.00" d=" M 465.98 327.97 C 471.61 328.00 477.24 328.01 482.87 328.03 C 483.10 342.98 483.08 357.94 482.89 372.89 C 477.27 373.13 471.64 373.07 466.02 372.92 C 465.95 357.94 466.04 342.95 465.98 327.97 Z" />
<path fill="#e0e4e5" opacity="1.00" d=" M 171.04 436.96 C 177.07 426.32 183.60 415.63 191.09 406.02 C 217.72 405.93 244.35 406.07 270.98 405.96 C 271.04 416.33 270.99 426.70 270.96 437.07 C 237.65 436.89 204.34 437.10 171.04 436.96 Z" />
</g>
<g id="#41505fff">
<path fill="#41505f" opacity="1.00" d=" M 240.08 340.07 C 245.36 339.90 250.65 339.90 255.93 340.07 C 256.10 345.35 256.10 350.64 255.93 355.93 C 250.64 356.09 245.35 356.09 240.07 355.93 C 239.90 350.64 239.90 345.36 240.08 340.07 Z" />
</g>
<g id="#499dd2ff">
<path fill="#499dd2" opacity="1.00" d=" M 295.17 350.07 C 323.44 349.23 351.75 349.84 380.03 349.77 C 376.45 357.24 372.64 364.59 369.05 372.05 C 344.40 371.87 319.73 372.19 295.08 371.91 C 294.88 364.64 294.69 357.34 295.17 350.07 Z" />
</g>
<g id="#39749aff">
<path fill="#39749a" opacity="1.00" d=" M 380.03 349.77 C 403.71 349.73 427.42 349.37 451.09 349.93 C 451.55 357.24 451.56 364.58 451.09 371.89 C 424.41 372.20 397.72 371.83 371.04 372.06 C 370.54 372.06 369.55 372.06 369.05 372.05 C 372.64 364.59 376.45 357.24 380.03 349.77 Z" />
</g>
<g id="#b9bec2ff">
<path fill="#b9bec2" opacity="1.00" d=" M 195.28 373.16 C 220.51 372.79 245.75 373.08 270.98 373.04 C 271.01 384.01 271.01 394.99 270.98 405.96 C 244.35 406.07 217.72 405.93 191.09 406.02 C 191.75 396.05 193.15 386.11 194.46 376.22 C 194.72 375.19 195.00 374.17 195.28 373.16 Z" />
<path fill="#b9bec2" opacity="1.00" d=" M 171.04 436.96 C 204.34 437.10 237.65 436.89 270.96 437.07 C 271.21 441.01 271.85 444.93 271.95 448.89 C 238.34 449.09 204.71 449.04 171.09 448.91 C 170.87 444.93 170.91 440.94 171.04 436.96 Z" />
</g>
<g id="#bac1c1ff">
<path fill="#bac1c1" opacity="1.00" d=" M 283.19 438.93 C 304.46 440.31 325.91 438.09 347.12 440.04 C 325.87 439.23 304.56 439.77 283.29 439.80 L 283.19 438.93 Z" />
</g>
<g id="#a9b0b0ff">
<path fill="#a9b0b0" opacity="1.00" d=" M 348.15 439.28 C 383.71 438.99 419.30 439.73 454.84 438.91 L 454.73 439.79 C 419.11 439.85 383.45 439.07 347.86 440.18 L 348.15 439.28 Z" />
</g>
<g id="#a2aaaaff">
<path fill="#a2aaaa" opacity="1.00" d=" M 347.12 440.04 L 347.86 440.18 C 384.04 442.70 420.76 440.85 457.14 441.10 L 457.15 442.14 C 398.36 441.47 339.53 441.90 280.72 441.80 L 281.33 441.16 C 303.22 440.48 325.44 442.71 347.12 440.04 Z" />
</g>
<g id="#a1a1a1ff">
<path fill="#a1a1a1" opacity="1.00" d=" M 361.00 459.75 C 357.85 449.77 371.97 448.64 377.72 453.40 C 377.87 455.45 377.85 457.51 377.65 459.57 C 372.11 459.94 366.55 459.80 361.00 459.75 M 362.27 454.31 C 362.18 455.53 362.07 456.76 361.94 457.99 C 366.69 458.43 371.47 458.42 376.22 457.99 C 376.66 450.89 366.58 451.36 362.27 454.31 Z" />
</g>
<g id="#b8b8b8ff">
<path fill="#b8b8b8" opacity="1.00" d=" M 412.93 459.94 C 410.43 450.46 422.77 450.02 429.12 451.01 C 429.17 453.11 429.12 455.22 428.99 457.32 C 428.28 455.72 427.52 454.13 426.35 452.83 C 426.18 455.21 426.11 457.60 426.08 459.99 C 421.70 460.29 417.31 460.27 412.93 459.94 Z" />
</g>
<g id="#e2e2e2ff">
<path fill="#e2e2e2" opacity="1.00" d=" M 362.27 454.31 C 366.58 451.36 376.66 450.89 376.22 457.99 C 371.47 458.42 366.69 458.43 361.94 457.99 C 362.07 456.76 362.18 455.53 362.27 454.31 Z" />
</g>
<g id="#808080ff">
<path fill="#808080" opacity="1.00" d=" M 310.77 455.84 C 309.67 451.64 326.16 452.02 324.81 458.11 C 324.08 457.10 323.38 456.08 322.70 455.05 C 318.70 454.66 314.69 455.06 310.77 455.84 Z" />
</g>
</svg>
